<svg width="860" height="572" viewBox="0 0 860 572" fill="none" xmlns="http://www.w3.org/2000/svg">
<g clip-path="url(#clip0_935_31060)">
<path d="M435.67 160.766C428.001 148.063 418.915 134.499 404.685 130.351C388.205 125.547 371.277 135.09 356.917 144.507C313.975 172.669 272.62 203.188 233.043 235.926L233.086 236.419C263.899 234.291 294.711 232.162 325.523 230.034C347.785 228.496 370.812 226.746 390.485 216.198C397.951 212.195 405.228 206.848 413.687 206.476C424.197 206.013 433.361 213.365 440.563 221.047C483.164 266.485 495.492 335.972 543.286 375.893C513.148 301.447 477.164 229.512 435.67 160.766Z" fill="#F2F2F2"/>
<path d="M697.529 546.169C692.819 540.21 690.894 538.815 686.247 532.801C648.409 483.784 612.846 433.111 579.555 380.783C556.943 345.243 535.452 309.021 515.082 272.116C505.385 254.571 495.953 236.889 486.787 219.069C479.674 205.251 472.72 191.351 465.925 177.368C463.982 173.375 462.094 169.363 460.215 165.341C455.788 155.885 451.443 146.383 446.778 137.055C441.462 126.423 434.991 115.277 425.228 108.135C420.786 104.751 415.473 102.703 409.912 102.231C401.965 101.717 394.633 105.004 387.74 108.594C337.309 134.934 290.096 167.958 247.392 205.536C204.578 243.198 166.31 285.747 133.367 332.316C132.36 333.757 129.976 332.38 130.994 330.93C134.999 325.256 139.084 319.643 143.248 314.092C195.029 245.111 258.52 185.792 330.819 138.845C342.983 130.949 355.375 123.424 367.997 116.269C374.358 112.661 380.746 109.099 387.245 105.757C393.615 102.479 400.38 99.5321 407.657 99.4219C432.424 99.0363 445.247 127.13 454.055 146.034C456.824 151.983 459.625 157.914 462.46 163.827C473.175 186.274 484.303 208.516 495.843 230.554C502.965 244.16 510.242 257.687 517.676 271.134C540.811 313.008 565.4 354.035 591.443 394.214C625.944 447.436 660.169 494.452 699.473 544.222C700.555 545.6 698.621 547.564 697.529 546.169Z" fill="#E4E4E4"/>
<path d="M244.944 191.663C243.505 190.056 242.075 188.449 240.627 186.843C229.206 174.191 216.952 161.687 201.268 154.434C193.791 150.866 185.627 148.971 177.345 148.879C168.784 148.907 160.416 151.156 152.506 154.305C148.766 155.802 145.109 157.5 141.507 159.309C137.391 161.384 133.349 163.597 129.325 165.827C121.772 170.014 114.318 174.384 106.961 178.938C92.3225 188 78.1427 197.753 64.4215 208.198C57.3085 213.615 50.3423 219.209 43.5229 224.981C37.1802 230.342 30.9657 235.848 24.8796 241.497C23.5781 242.7 21.6348 240.754 22.9363 239.551C24.5403 238.054 26.1627 236.567 27.7851 235.098C32.3681 230.948 37.0244 226.878 41.7542 222.887C50.379 215.598 59.2271 208.589 68.2986 201.863C82.4051 191.397 96.9972 181.64 112.075 172.594C119.609 168.077 127.248 163.75 134.99 159.612C137.327 158.363 139.692 157.142 142.084 155.985C147.512 153.243 153.152 150.943 158.949 149.109C167.161 146.448 175.85 145.593 184.422 146.602C192.698 147.808 200.672 150.571 207.923 154.746C223.322 163.367 235.265 176.698 246.887 189.707C248.061 191.029 246.126 192.985 244.944 191.663Z" fill="#E4E4E4"/>
<path d="M560.457 322.764L597.356 309.246L615.677 302.534C621.643 300.349 627.596 297.86 633.764 296.295C639.124 294.761 644.815 294.834 650.135 296.504C654.879 298.263 659.221 300.959 662.904 304.432C666.666 307.903 670.167 311.647 673.377 315.635C677.366 320.437 681.296 325.288 685.243 330.124C701.535 350.081 717.72 370.125 733.799 390.255C749.877 410.385 765.848 430.6 781.711 450.901C797.613 471.252 813.406 491.687 829.089 512.208C831.011 514.722 832.93 517.237 834.848 519.754C835.908 521.144 838.297 519.773 837.223 518.363C821.423 497.636 805.514 476.994 789.495 456.437C773.436 435.83 757.266 415.311 740.986 394.879C724.705 374.448 708.315 354.105 691.815 333.851C687.704 328.805 683.587 323.764 679.462 318.73C675.983 314.483 672.543 310.19 668.728 306.237C661.723 298.981 652.972 292.568 642.497 292.394C636.338 292.292 630.378 294.25 624.656 296.323C618.487 298.559 612.333 300.836 606.172 303.093L569.015 316.705L559.726 320.109C558.078 320.712 558.79 323.375 560.457 322.765L560.457 322.764Z" fill="#E4E4E4"/>
<path d="M196.414 170.354C177.663 160.701 153.649 162.591 136.418 174.651C169.285 180.331 201.792 187.931 233.774 197.411C220.493 189.616 210.104 177.402 196.414 170.354Z" fill="#F2F2F2"/>
<path d="M136.233 174.617L132.623 177.556C133.844 176.528 135.114 175.563 136.418 174.65C136.356 174.64 136.295 174.628 136.233 174.617Z" fill="#F2F2F2"/>
<path d="M661.514 322.902C657.882 318.473 653.954 313.836 648.522 312.037L643.449 312.237C682.061 380.578 734.209 440.294 796.693 487.719C751.633 432.78 706.574 377.841 661.514 322.902Z" fill="#F2F2F2"/>
<path d="M346.097 286.367C348.445 294.909 353.733 302.344 361.026 307.357C363.846 309.28 367.182 311.125 368.147 314.402C368.654 316.492 368.342 318.696 367.273 320.561C366.207 322.403 364.909 324.099 363.413 325.61L363.276 326.123C356.279 321.97 349.622 316.716 345.756 309.547C341.891 302.379 341.352 292.984 346.097 286.367" fill="#F2F2F2"/>
<path d="M579.06 489.67C581.408 498.212 586.696 505.647 593.989 510.66C596.809 512.583 600.145 514.428 601.11 517.705C601.617 519.794 601.304 521.999 600.236 523.864C599.17 525.705 597.872 527.402 596.375 528.913L596.239 529.426C589.241 525.272 582.584 520.018 578.719 512.85C574.854 505.681 574.314 496.286 579.06 489.67" fill="#F2F2F2"/>
<path d="M114.133 475.648C116.48 484.191 121.768 491.626 129.061 496.638C131.881 498.561 135.217 500.406 136.182 503.683C136.689 505.773 136.377 507.977 135.308 509.843C134.242 511.684 132.945 513.381 131.448 514.891L131.311 515.404C124.314 511.251 117.657 505.997 113.792 498.828C109.926 491.66 109.387 482.265 114.133 475.648" fill="#F2F2F2"/>
<path d="M649.15 102.152C677.313 102.152 700.143 79.2846 700.143 51.0761C700.143 22.8675 677.313 0 649.15 0C620.988 0 598.158 22.8675 598.158 51.0761C598.158 79.2846 620.988 102.152 649.15 102.152Z" fill="#FF7E00"/>
<path d="M741.171 11.8871C716.458 8.54113 688.244 21.9207 681.839 46.0615C680.225 41.7692 677.29 38.1021 673.459 35.5899C669.628 33.0777 665.099 31.8505 660.525 32.0855C655.952 32.3206 651.572 34.0058 648.018 36.8976C644.464 39.7894 641.919 43.7381 640.752 48.1733L643.581 50.203C696.541 61.6744 751.362 61.4261 804.216 49.4756C787.025 31.3797 765.885 15.2329 741.171 11.8871Z" fill="#F0F0F0"/>
<path d="M635.187 79.9886C610.474 76.6427 582.26 90.0222 575.855 114.163C574.241 109.871 571.306 106.204 567.475 103.691C563.644 101.179 559.114 99.952 554.541 100.187C549.968 100.422 545.588 102.107 542.033 104.999C538.479 107.891 535.935 111.84 534.768 116.275L537.597 118.305C590.556 129.776 645.377 129.528 698.231 117.577C681.041 99.4813 659.9 83.3345 635.187 79.9886Z" fill="#F0F0F0"/>
<path d="M850.881 92.8664C850.779 92.8667 850.677 92.8508 850.579 92.8195C586.213 9.07661 353.211 20.0275 204.298 43.9606C184.033 47.2164 163.713 50.9769 143.904 55.1384C138.846 56.1995 133.6 57.337 128.309 58.5213C121.991 59.9307 115.758 61.3821 109.78 62.8334C107.198 63.4457 104.667 64.0628 102.186 64.6848C98.4286 65.6139 94.6157 66.5822 90.5285 67.6462C85.9613 68.8257 81.3208 70.0629 76.7332 71.3236C76.7164 71.3295 76.6993 71.3344 76.6819 71.3383L76.6824 71.3393C71.5006 72.7564 66.3461 74.2146 61.3615 75.6709C58.6637 76.4514 56.0586 77.2211 53.5634 77.981C53.2846 78.0583 53.0376 78.1326 52.7871 78.2089L52.2511 78.3722C51.9406 78.4671 51.634 78.56 51.3274 78.648L51.3079 78.6539L51.3083 78.6549L50.4969 78.9072C49.5293 79.2007 48.5851 79.4872 47.6566 79.7728C23.1154 87.3505 9.62429 92.7413 9.49101 92.7941C9.36913 92.8431 9.23883 92.8675 9.10754 92.866C8.97624 92.8644 8.84653 92.8371 8.7258 92.7853C8.60508 92.7336 8.4957 92.6586 8.40392 92.5645C8.31215 92.4705 8.23977 92.3592 8.19091 92.2372C8.14206 92.1151 8.1177 91.9845 8.11921 91.853C8.12071 91.7215 8.14806 91.5916 8.1997 91.4707C8.25133 91.3498 8.32624 91.2402 8.42014 91.1483C8.51404 91.0564 8.6251 90.9838 8.74698 90.9349C8.88124 90.8821 22.4383 85.4639 47.0688 77.8578C48.0008 77.5713 48.9474 77.2847 49.9179 76.9903L50.6717 76.7556C50.6976 76.7458 50.7235 76.738 50.7498 76.7302C51.055 76.6431 51.3596 76.5502 51.6691 76.4563L52.2062 76.293C52.4737 76.2118 52.7373 76.1316 53.0073 76.0573C55.4855 75.3023 58.0993 74.5306 60.804 73.7472C65.7905 72.29 70.9499 70.8317 76.1356 69.4126C76.1517 69.4068 76.1683 69.4028 76.1844 69.398V69.397C80.7882 68.1324 85.4457 66.8903 90.0275 65.7069C94.1212 64.6418 97.9413 63.6716 101.705 62.7406C104.197 62.1195 106.733 61.5011 109.314 60.8853C115.298 59.4319 121.545 57.9786 127.874 56.5663C133.172 55.381 138.428 54.2406 143.493 53.1785C163.334 49.0102 183.685 45.2438 203.981 41.9831C353.107 18.0157 586.443 7.0472 851.182 90.9104C851.409 90.9824 851.604 91.1336 851.73 91.3366C851.856 91.5397 851.905 91.7813 851.869 92.0176C851.833 92.2539 851.713 92.4694 851.532 92.6251C851.351 92.7808 851.12 92.8664 850.881 92.8664Z" fill="#CCCCCC"/>
<path d="M262.948 420.466C262.602 419.452 262.019 418.535 261.248 417.792C260.963 417.528 260.656 417.29 260.328 417.081C257.719 415.338 253.819 414.948 251.34 417.081C251.09 417.298 250.859 417.536 250.65 417.792C249.91 418.703 249.15 419.595 248.37 420.466C247.09 421.928 245.78 423.34 244.411 424.712C244.021 425.093 243.631 425.483 243.231 425.864C243.001 426.094 242.771 426.315 242.541 426.535C241.661 427.376 240.761 428.187 239.851 428.989C239.371 429.419 238.891 429.84 238.402 430.251C237.672 430.861 236.942 431.472 236.202 432.063C236.132 432.113 236.062 432.163 235.992 432.223C235.972 432.233 235.962 432.254 235.942 432.264C235.932 432.264 235.922 432.263 235.912 432.284C235.885 432.294 235.861 432.311 235.842 432.334C235.622 432.484 235.472 432.584 235.362 432.674C235.402 432.654 235.442 432.624 235.482 432.604C235.302 432.744 235.112 432.884 234.932 433.025C233.182 434.317 231.393 435.558 229.563 436.72C225.036 439.622 220.281 442.151 215.345 444.281C215.015 444.412 214.675 444.552 214.335 444.682C201.412 449.985 187.393 452.055 173.491 450.711C172.072 450.601 170.652 450.451 169.232 450.26C167.592 450.02 165.963 449.73 164.343 449.399C158.176 448.167 152.143 446.342 146.326 443.951C139.049 440.613 132.128 436.546 125.669 431.813C124.669 431.102 123.659 430.391 122.649 429.7C123.799 426.876 124.929 424.051 126.029 421.207C126.579 419.835 127.109 418.463 127.628 417.081C131.718 406.435 135.557 395.689 139.237 384.903C142.956 373.977 146.466 362.987 149.765 351.934C150.105 350.812 150.435 349.691 150.755 348.569C152.485 342.73 154.144 336.878 155.734 331.013C155.884 330.442 156.044 329.881 156.184 329.31C156.644 327.628 157.094 325.945 157.534 324.263C158.534 320.467 156.274 315.93 152.295 315.019C150.379 314.527 148.347 314.799 146.627 315.778C144.908 316.757 143.634 318.366 143.076 320.267C142.646 321.889 142.216 323.502 141.776 325.124C139.667 332.966 137.447 340.781 135.117 348.569C134.777 349.691 134.437 350.812 134.097 351.934C128.958 368.899 123.316 385.694 117.17 402.319C116.43 404.332 115.68 406.338 114.92 408.338C114.55 409.319 114.18 410.301 113.801 411.282C113.071 413.215 112.321 415.148 111.571 417.081C111.141 418.213 110.701 419.344 110.261 420.466C109.971 421.177 109.691 421.888 109.411 422.589C106.56 421.564 103.607 420.852 100.603 420.466L100.123 420.406C97.7934 420.125 95.4378 420.145 93.1137 420.466C89.6353 420.872 86.2885 422.039 83.3099 423.884C80.3314 425.729 77.7937 428.207 75.8764 431.142C71.1071 438.663 71.1671 449.419 77.856 455.809C84.745 462.388 95.1734 462.338 103.282 458.222C107.579 455.894 111.203 452.492 113.801 448.347C114.796 446.845 115.71 445.291 116.54 443.691C116.75 443.831 116.96 443.971 117.17 444.121C117.97 444.682 118.77 445.253 119.56 445.814C124.162 449.153 129.012 452.137 134.067 454.737C144.938 460.15 156.639 463.694 168.682 465.223C168.952 465.253 169.212 465.293 169.482 465.323C170.812 465.493 172.152 465.623 173.491 465.733C192.711 467.184 211.953 463.245 229.063 454.356C230.513 453.605 231.949 452.817 233.372 451.993C235.582 450.711 237.742 449.349 239.851 447.907C241.001 447.126 242.121 446.334 243.231 445.503C248.081 441.925 252.601 437.92 256.739 433.535C258.308 431.883 259.812 430.177 261.248 428.418C262.606 426.979 263.389 425.089 263.448 423.11C263.44 422.206 263.271 421.31 262.948 420.466ZM97.3831 444.321C97.593 444.171 97.803 444.011 98.003 443.851C97.943 444.001 97.653 444.171 97.3831 444.321H97.3831ZM100.593 441.087C100.363 441.347 100.153 441.607 99.9227 441.868C99.2231 442.652 98.4715 443.388 97.673 444.071C97.563 444.171 97.4431 444.271 97.3231 444.361C97.3218 444.361 97.3204 444.362 97.3192 444.362C97.318 444.363 97.3169 444.363 97.316 444.364C97.315 444.365 97.3143 444.366 97.3138 444.368C97.3133 444.369 97.313 444.37 97.3131 444.372C97.1686 444.436 97.0284 444.51 96.8931 444.592C96.4632 444.852 96.0232 445.093 95.5734 445.313C94.6924 445.638 93.7861 445.889 92.8638 446.064C92.155 446.116 91.4437 446.123 90.7341 446.084H90.7141C90.2244 445.975 89.7405 445.841 89.2643 445.683C89.0244 445.563 88.7944 445.423 88.5644 445.283C88.4744 445.203 88.3944 445.123 88.3444 445.073C88.2468 444.983 88.1565 444.886 88.0746 444.782C88.0746 444.781 88.0743 444.779 88.0738 444.778C88.0733 444.777 88.0726 444.776 88.0717 444.775C88.0708 444.774 88.0696 444.773 88.0684 444.773C88.0672 444.772 88.0659 444.772 88.0646 444.772C87.9545 444.572 87.8345 444.372 87.7246 444.171C87.7189 444.166 87.7153 444.159 87.7146 444.151C87.6346 443.901 87.5646 443.64 87.5046 443.38C87.483 442.923 87.4863 442.465 87.5146 442.008C87.6488 441.368 87.8292 440.739 88.0545 440.125C88.257 439.69 88.4874 439.269 88.7444 438.863C88.7644 438.823 88.8644 438.663 88.9744 438.483C88.9844 438.473 88.9844 438.473 88.9844 438.463C89.1344 438.293 89.2844 438.112 89.4443 437.952C89.7143 437.652 90.0043 437.391 90.2942 437.121C90.8581 436.751 91.4423 436.413 92.044 436.109C92.9985 435.77 93.9779 435.505 94.9735 435.318C96.4416 435.201 97.9171 435.215 99.3828 435.358C100.771 435.599 102.141 435.937 103.482 436.37C102.669 437.95 101.744 439.469 100.713 440.916C100.673 440.976 100.633 441.037 100.593 441.087ZM89.4743 437.792C89.3862 437.933 89.2822 438.064 89.1643 438.182C89.2437 438.035 89.3486 437.902 89.4743 437.792Z" fill="#3F3D56"/>
<path d="M232.893 318.183C232.803 321.328 232.713 324.472 232.623 327.617C232.433 334.598 232.236 341.581 232.033 348.568C231.823 356.43 231.603 364.288 231.373 372.143C231.263 376.2 231.15 380.256 231.033 384.312C230.723 395.238 230.416 406.161 230.113 417.08C230.083 418.212 230.043 419.334 230.013 420.465C229.863 425.884 229.713 431.302 229.563 436.72C229.393 442.598 229.227 448.477 229.063 454.356C228.943 458.762 228.82 463.172 228.693 467.586C227.794 499.563 226.894 531.541 225.994 563.519C225.956 565.499 225.154 567.387 223.755 568.788C222.357 570.188 220.472 570.992 218.495 571.03C216.511 571.014 214.613 570.217 213.21 568.812C211.807 567.407 211.012 565.506 210.996 563.519C211.496 545.532 212.003 527.545 212.516 509.558C212.966 493.294 213.422 477.03 213.886 460.765C214.036 455.407 214.186 450.046 214.336 444.681C214.566 436.609 214.792 428.537 215.015 420.465C215.045 419.334 215.085 418.212 215.115 417.08C215.135 416.089 215.165 415.107 215.195 414.116C215.635 398.443 216.075 382.766 216.515 367.086C216.695 360.917 216.869 354.744 217.035 348.568C217.235 341.528 217.435 334.491 217.635 327.457C217.725 324.362 217.805 321.278 217.895 318.183C217.933 316.203 218.735 314.314 220.133 312.914C221.532 311.514 223.417 310.71 225.394 310.672C227.378 310.688 229.276 311.484 230.679 312.89C232.082 314.295 232.877 316.196 232.893 318.183Z" fill="#3F3D56"/>
<path d="M644.259 320.269C636.396 350.093 626.998 379.489 616.102 408.341C613.096 416.299 610.02 424.242 606.732 432.088L607.488 430.294C606.021 434.031 604.147 437.596 601.9 440.922C601.747 441.136 601.591 441.349 601.433 441.559C602.21 440.564 602.357 440.367 601.876 440.969C601.622 441.27 601.371 441.572 601.108 441.866C600.408 442.651 599.657 443.388 598.86 444.072C598.659 444.244 598.455 444.413 598.248 444.578L599.186 443.847C599.077 444.104 598.313 444.446 598.075 444.591C597.305 445.057 596.501 445.465 595.671 445.812L597.462 445.055C596.101 445.604 594.681 445.994 593.231 446.217L595.225 445.949C593.8 446.146 592.356 446.161 590.928 445.995L592.921 446.263C591.752 446.102 590.608 445.793 589.517 445.345L591.308 446.102C590.726 445.848 590.164 445.548 589.629 445.204C589.358 445.027 588.524 444.395 589.615 445.229C590.748 446.096 589.76 445.303 589.527 445.073C589.333 444.881 589.157 444.672 588.967 444.477C588.085 443.571 589.964 446.036 589.364 444.976C589.044 444.445 588.751 443.898 588.486 443.337L589.242 445.132C588.898 444.277 588.654 443.386 588.514 442.476L588.782 444.473C588.639 443.341 588.638 442.195 588.779 441.063L588.511 443.06C588.694 441.796 589.028 440.558 589.506 439.374L588.75 441.168C589.082 440.372 589.476 439.602 589.927 438.866C590.135 438.486 590.379 438.127 590.656 437.793C590.705 437.809 589.387 439.308 590.087 438.552C590.269 438.354 590.441 438.145 590.625 437.949C590.922 437.634 591.239 437.347 591.551 437.049C592.595 436.054 590.089 438.017 591.294 437.229C592.168 436.654 593.087 436.151 594.043 435.727L592.252 436.484C593.853 435.826 595.531 435.375 597.246 435.143L595.253 435.411C597.401 435.163 599.571 435.189 601.713 435.488L599.719 435.219C602.431 435.631 605.081 436.378 607.61 437.442L605.818 436.685C611.207 439.003 615.98 442.443 620.744 445.817C625.346 449.155 630.194 452.136 635.248 454.737C646.119 460.151 657.821 463.696 669.865 465.226C687.138 467.345 704.666 465.086 720.84 458.655C737.014 452.224 751.317 441.827 762.436 428.419C763.793 426.978 764.575 425.088 764.633 423.108C764.619 421.119 763.831 419.213 762.436 417.797C759.685 415.267 754.488 414.553 751.831 417.797C749.314 420.876 746.606 423.795 743.726 426.537C742.381 427.815 741.001 429.053 739.584 430.252C738.775 430.937 737.955 431.608 737.124 432.266C736.73 432.578 735.505 433.406 737.387 432.069C736.956 432.375 736.542 432.71 736.117 433.025C729.82 437.674 722.996 441.562 715.787 444.607L717.579 443.85C709.844 447.1 701.72 449.329 693.411 450.482L695.405 450.214C686.857 451.34 678.199 451.327 669.655 450.176L671.649 450.444C663.106 449.269 654.753 446.99 646.795 443.663L648.587 444.421C640.908 441.018 633.621 436.79 626.854 431.811C623.332 429.198 619.617 426.857 615.742 424.806C611.228 422.497 606.34 421.009 601.307 420.411C591.869 419.299 582.252 422.981 577.064 431.147C572.289 438.664 572.351 449.418 579.038 455.809C585.924 462.392 596.353 462.336 604.469 458.219C612.285 454.253 616.98 446.015 620.282 438.247C627.712 420.766 634.29 402.881 640.419 384.905C646.482 367.12 651.981 349.155 656.915 331.011C657.526 328.764 658.128 326.514 658.721 324.262C659.722 320.468 657.46 315.93 653.484 315.023C651.567 314.528 649.534 314.799 647.813 315.778C646.092 316.757 644.818 318.367 644.259 320.269L644.259 320.269Z" fill="#3F3D56"/>
<path d="M719.08 318.183L716.381 414.119L713.696 509.555L712.178 563.519C712.195 565.506 712.99 567.407 714.393 568.812C715.795 570.217 717.693 571.014 719.677 571.031C721.653 570.992 723.539 570.189 724.937 568.788C726.335 567.388 727.137 565.5 727.175 563.519L729.875 467.583L732.56 372.147L734.078 318.183C734.061 316.196 733.266 314.296 731.863 312.891C730.46 311.486 728.563 310.689 726.579 310.672C724.602 310.71 722.717 311.514 721.319 312.914C719.921 314.315 719.118 316.203 719.08 318.183Z" fill="#3F3D56"/>
<path opacity="0.2" d="M459.521 536.734H461.849V430.534H516.17V428.207H461.849V383.396H503.799C503.184 382.613 502.551 381.839 501.9 381.076H461.849V351.479C461.079 351.15 460.303 350.833 459.521 350.534V381.076H413.876V343.154C413.094 343.19 412.324 343.244 411.547 343.31V381.076H375.133V352.783C374.351 353.13 373.58 353.494 372.816 353.877V381.076H342.205V383.396H372.816V428.207H342.205V430.534H372.816V536.734H375.133V430.534C379.915 430.533 384.651 431.476 389.069 433.308C393.488 435.141 397.502 437.828 400.884 441.215C404.266 444.602 406.948 448.623 408.777 453.049C410.607 457.475 411.548 462.218 411.547 467.008V536.734H413.876V430.534H459.521V536.734ZM375.133 428.207V383.396H411.547V428.207H375.133ZM413.876 428.207V383.396H414.789C420.664 383.397 426.481 384.556 431.908 386.808C437.336 389.06 442.267 392.361 446.421 396.522C450.574 400.684 453.869 405.623 456.117 411.06C458.365 416.496 459.521 422.323 459.521 428.207H413.876Z" fill="black"/>
<path d="M445.301 504.892C442.369 517.991 435.347 529.813 425.254 538.643C424.514 539.284 423.774 539.905 423.004 540.516C421.135 540.686 419.278 540.859 417.435 541.036C415.905 541.177 414.396 541.327 412.896 541.467L412.626 541.497L412.436 539.855L411.676 533.205C408.728 528.384 406.901 522.961 406.33 517.337C405.759 511.713 406.458 506.033 408.377 500.716C411.016 493.586 415.795 487.286 420.495 481.037C426.984 472.404 433.293 463.871 433.523 453.346C436.716 457.438 439.37 461.925 441.421 466.696C439.486 467.608 437.747 468.891 436.302 470.471C435.892 470.922 435.482 471.553 435.762 472.094C436.002 472.554 436.602 472.664 437.122 472.724C438.372 472.855 439.632 472.985 440.882 473.115C441.881 473.225 442.881 473.325 443.881 473.436C445.091 477.412 445.911 481.498 446.331 485.634C447.004 492.068 446.657 498.568 445.301 504.892Z" fill="#3F3D56"/>
<path d="M478.496 478.644C472.597 482.94 469.148 489.12 466.468 495.93C463.722 496.81 461.251 498.391 459.299 500.516C458.889 500.967 458.479 501.598 458.759 502.139C458.999 502.6 459.599 502.71 460.119 502.77C461.369 502.9 462.629 503.03 463.878 503.16C461.199 511.212 458.739 519.545 454 526.345C450.848 530.835 446.74 534.567 441.972 537.271C440.672 538.013 439.33 538.679 437.952 539.264C432.873 539.655 427.891 540.072 423.005 540.516C421.135 540.686 419.279 540.86 417.435 541.037C415.906 541.177 414.396 541.327 412.896 541.468C412.886 540.917 412.886 540.366 412.896 539.815C413.212 525.142 418.601 511.033 428.144 499.896C428.594 499.375 429.054 498.864 429.524 498.353C434.358 493.181 440.043 488.879 446.331 485.634C456.239 480.474 467.344 478.061 478.496 478.644Z" fill="#FF7E00"/>
<path d="M419.164 535.897L418.014 539.303L417.434 541.035C415.905 541.175 414.395 541.326 412.895 541.466L412.625 541.496C410.965 541.666 409.316 541.836 407.666 542.007C407.236 541.506 406.806 540.995 406.386 540.474C395.95 527.816 390.94 511.534 392.452 495.187C393.964 478.84 401.874 463.757 414.455 453.234C413.135 460.155 414.675 466.785 417.204 473.364C416.934 473.474 416.674 473.585 416.425 473.705C414.489 474.618 412.75 475.9 411.305 477.48C410.895 477.931 410.485 478.562 410.765 479.103C411.005 479.564 411.605 479.674 412.125 479.734C413.375 479.864 414.635 479.994 415.885 480.124C416.884 480.235 417.884 480.335 418.884 480.445C419.354 480.495 419.824 480.545 420.294 480.595C420.364 480.745 420.424 480.886 420.494 481.036C423.343 487.225 426.413 493.444 428.143 499.894C428.576 501.512 428.917 503.154 429.163 504.811C429.933 510.412 429.434 516.115 427.703 521.496C425.972 526.878 423.053 531.8 419.164 535.897Z" fill="#FF7E00"/>
<path d="M519.808 390.643C511.2 373.825 497.865 359.676 482.181 349.277C466.447 338.894 448.393 332.57 429.627 330.87C427.167 330.646 424.701 330.515 422.229 330.477C419.308 330.433 375.37 343.127 360.651 353.493C345.94 363.733 333.839 377.293 325.323 393.079C316.823 408.952 312.642 426.786 313.2 444.789C313.928 462.902 318.969 480.577 327.9 496.342C336.71 512.056 349.219 525.377 364.339 535.146C379.674 544.947 395.079 570.935 413.186 571.852C431.429 572.776 452.234 548.262 468.872 540.819C485.511 533.313 499.895 521.571 510.592 506.763C520.986 492.251 527.71 475.429 530.188 457.742C532.761 439.632 531.562 420.955 525.387 403.645C523.803 399.198 521.939 394.855 519.808 390.643C518.028 387.132 512.813 385.84 509.548 387.948C507.866 388.985 506.648 390.632 506.147 392.546C505.646 394.46 505.9 396.494 506.858 398.225C507.903 400.286 508.874 402.382 509.773 404.512L509.017 402.717C512.416 410.905 514.728 419.504 515.892 428.294L515.624 426.297C516.863 435.833 516.84 445.492 515.558 455.022L515.826 453.025C514.53 462.555 511.99 471.873 508.272 480.741L509.028 478.947C507.116 483.471 504.887 487.855 502.358 492.064C501.076 494.191 499.716 496.268 498.278 498.295C497.646 499.185 496.995 500.059 496.339 500.93C495.483 502.068 497.506 499.445 496.621 500.56C496.471 500.75 496.321 500.941 496.17 501.131C495.716 501.699 495.255 502.263 494.788 502.821C491.671 506.546 488.269 510.023 484.613 513.22C483.702 514.016 482.777 514.794 481.836 515.554C481.367 515.933 480.904 516.328 480.415 516.681C480.434 516.667 481.994 515.48 481.071 516.169C480.78 516.386 480.492 516.606 480.201 516.822C478.261 518.261 476.27 519.627 474.228 520.92C469.525 523.888 464.591 526.471 459.474 528.645L461.266 527.887C452.439 531.609 443.162 534.152 433.673 535.45L435.667 535.182C426.183 536.466 416.57 536.483 407.082 535.233L409.075 535.501C400.452 534.341 392.016 532.057 383.984 528.706L385.775 529.464C381.123 527.496 376.637 525.155 372.361 522.462C370.245 521.127 368.185 519.709 366.179 518.208C365.893 517.994 365.609 517.777 365.324 517.562C364.408 516.87 365.981 518.072 365.994 518.081C365.462 517.698 364.949 517.289 364.459 516.854C363.49 516.064 362.537 515.255 361.598 514.429C357.843 511.116 354.336 507.531 351.107 503.703C350.298 502.746 349.507 501.774 348.733 500.788C348.398 500.361 347.787 499.496 349.137 501.318C348.959 501.078 348.775 500.843 348.596 500.605C348.165 500.032 347.739 499.455 347.32 498.874C345.852 496.839 344.456 494.754 343.133 492.619C340.143 487.786 337.534 482.727 335.329 477.488L336.085 479.283C332.476 470.683 330.009 461.647 328.745 452.405L329.013 454.402C327.873 445.883 327.857 437.251 328.965 428.728L328.697 430.725C329.833 422.471 332.05 414.403 335.291 406.73L334.535 408.524C336.574 403.721 338.979 399.081 341.729 394.647C343.105 392.429 344.564 390.264 346.106 388.153C346.456 387.673 346.81 387.197 347.168 386.723C347.492 386.294 348.383 385.227 346.863 387.112C347.012 386.927 347.155 386.737 347.302 386.551C348.148 385.477 349.014 384.421 349.901 383.381C353.258 379.445 356.895 375.756 360.783 372.344C361.765 371.481 362.763 370.637 363.777 369.811C364.237 369.436 364.701 369.064 365.168 368.697C365.354 368.55 365.543 368.405 365.729 368.257C363.732 369.849 365.174 368.691 365.628 368.35C367.717 366.782 369.861 365.293 372.062 363.882C376.954 360.749 382.1 358.032 387.446 355.762L385.655 356.52C393.414 353.256 427.789 345.554 434.041 346.395L432.048 346.126C441.237 347.411 450.219 349.897 458.764 353.52L456.972 352.763C461.303 354.604 465.511 356.721 469.571 359.101C471.599 360.292 473.588 361.548 475.537 362.869C476.459 363.495 477.372 364.134 478.275 364.787C478.726 365.114 479.175 365.444 479.621 365.778C479.869 365.963 480.115 366.151 480.362 366.336C481.401 367.117 478.931 365.207 480.02 366.069C483.666 368.938 487.128 372.033 490.386 375.336C491.987 376.969 493.532 378.653 495.023 380.389C495.787 381.28 496.536 382.184 497.269 383.101C497.633 383.556 498.873 385.205 497.353 383.185C497.725 383.679 498.1 384.169 498.467 384.666C501.627 388.95 504.433 393.485 506.858 398.225C508.651 401.728 513.843 403.034 517.117 400.919C518.8 399.882 520.019 398.235 520.52 396.321C521.021 394.407 520.766 392.373 519.808 390.643Z" fill="#3F3D56"/>
<path d="M432.43 513.221C431.656 513.257 430.89 513.053 430.235 512.638C429.58 512.223 429.069 511.616 428.77 510.9C428.471 510.184 428.399 509.393 428.564 508.635C428.729 507.876 429.122 507.187 429.691 506.66C429.787 506.281 429.855 506.008 429.95 505.629C429.916 505.546 429.882 505.464 429.847 505.381C426.368 497.071 404.166 520.237 403.206 528.047C402.784 531.499 402.962 534.999 403.733 538.39C396.542 522.677 392.808 505.598 392.784 488.313C392.782 483.975 393.023 479.641 393.504 475.33C393.902 471.796 394.454 468.287 395.161 464.804C399.015 445.902 407.291 428.186 419.309 413.11C426.181 413.494 432.205 412.446 432.786 399.104C432.89 396.731 434.647 394.676 435.034 392.338C434.378 392.424 433.711 392.478 433.055 392.521C432.851 392.532 432.636 392.543 432.431 392.553L432.354 392.557C431.633 392.589 430.918 392.412 430.295 392.047C429.672 391.682 429.168 391.144 428.843 390.498C428.518 389.853 428.386 389.127 428.464 388.408C428.541 387.689 428.824 387.008 429.279 386.447C429.562 386.097 429.846 385.748 430.129 385.4C430.56 384.861 431.001 384.333 431.431 383.794C431.481 383.743 431.527 383.689 431.571 383.632C432.066 383.018 432.56 382.415 433.055 381.801C432.152 380.397 430.937 379.221 429.506 378.364C424.547 375.455 417.706 377.47 414.124 381.963C410.531 386.455 409.854 392.758 411.102 398.371C412.329 403.148 414.358 407.68 417.104 411.774C416.835 412.119 416.555 412.453 416.286 412.798C411.37 419.129 407.086 425.928 403.494 433.096C404.511 425.146 392.085 396.433 387.279 390.352C381.507 383.047 369.671 386.235 368.654 395.495C368.644 395.585 368.634 395.674 368.625 395.764C369.339 396.167 370.037 396.595 370.721 397.048C371.58 397.623 372.245 398.444 372.63 399.404C373.015 400.364 373.102 401.418 372.878 402.428C372.655 403.438 372.132 404.357 371.378 405.065C370.624 405.772 369.675 406.235 368.654 406.393L368.55 406.409C358.995 420.073 389.624 455.637 397.291 447.652C393.682 457.895 391.419 468.564 390.557 479.392C390.069 485.78 390.098 492.197 390.643 498.58L390.611 498.354C388.907 484.451 359.684 463.78 351.151 465.502C346.235 466.493 341.393 466.268 342.139 471.235C342.151 471.314 342.163 471.393 342.175 471.473C343.5 472.013 344.789 472.636 346.037 473.337C346.751 473.74 347.449 474.168 348.133 474.621C348.992 475.196 349.657 476.017 350.042 476.977C350.427 477.937 350.513 478.991 350.29 480.001C350.066 481.011 349.544 481.93 348.79 482.637C348.036 483.345 347.087 483.808 346.066 483.965L345.961 483.981C345.886 483.992 345.822 484.003 345.746 484.014C341.397 499.002 373.649 523.192 393.257 515.495H393.268C395.211 523.953 398.026 532.185 401.668 540.06H431.678C431.786 539.726 431.883 539.381 431.979 539.047C429.202 539.222 426.413 539.056 423.676 538.552C425.902 535.815 428.129 533.057 430.355 530.32C430.405 530.269 430.452 530.215 430.495 530.159C431.624 528.758 432.765 527.368 433.894 525.968L433.895 525.966C433.955 521.673 433.463 517.389 432.431 513.222L432.43 513.221ZM398.065 445.507L398.081 445.486L398.065 445.529V445.507ZM391.418 505.529L391.159 504.948C391.17 504.527 391.17 504.107 391.159 503.676C391.159 503.558 391.138 503.439 391.138 503.321C391.235 504.064 391.321 504.807 391.428 505.551L391.418 505.529Z" fill="#3F3D56"/>
<path d="M95.2346 450.671C101.309 450.671 106.233 445.739 106.233 439.655C106.233 433.571 101.309 428.639 95.2346 428.639C89.1604 428.639 84.2363 433.571 84.2363 439.655C84.2363 445.739 89.1604 450.671 95.2346 450.671Z" fill="#3F3D56"/>
<path d="M227.213 570.849C233.287 570.849 238.211 565.917 238.211 559.833C238.211 553.749 233.287 548.816 227.213 548.816C221.139 548.816 216.215 553.749 216.215 559.833C216.215 565.917 221.139 570.849 227.213 570.849Z" fill="#3F3D56"/>
<path d="M728.137 570.849C734.211 570.849 739.135 565.917 739.135 559.833C739.135 553.749 734.211 548.816 728.137 548.816C722.063 548.816 717.139 553.749 717.139 559.833C717.139 565.917 722.063 570.849 728.137 570.849Z" fill="#3F3D56"/>
<path d="M755.133 430.642C761.207 430.642 766.131 425.71 766.131 419.626C766.131 413.542 761.207 408.609 755.133 408.609C749.059 408.609 744.135 413.542 744.135 419.626C744.135 425.71 749.059 430.642 755.133 430.642Z" fill="#3F3D56"/>
<path d="M723.139 328.49C729.213 328.49 734.137 323.558 734.137 317.473C734.137 311.389 729.213 306.457 723.139 306.457C717.065 306.457 712.141 311.389 712.141 317.473C712.141 323.558 717.065 328.49 723.139 328.49Z" fill="#3F3D56"/>
<path d="M264.209 419.624C264.203 422.438 263.116 425.142 261.175 427.176C259.233 429.21 256.585 430.418 253.779 430.551C250.973 430.684 248.223 429.732 246.099 427.89C243.974 426.049 242.638 423.46 242.366 420.659C242.094 417.858 242.908 415.06 244.638 412.843C246.369 410.627 248.884 409.161 251.663 408.75C254.442 408.339 257.273 409.014 259.569 410.636C261.865 412.257 263.452 414.701 263.999 417.461C264.14 418.173 264.211 418.898 264.209 419.624Z" fill="#3F3D56"/>
<path d="M484.174 360.537C490.248 360.537 495.172 355.605 495.172 349.52C495.172 343.436 490.248 338.504 484.174 338.504C478.1 338.504 473.176 343.436 473.176 349.52C473.176 355.605 478.1 360.537 484.174 360.537Z" fill="#3F3D56"/>
<path d="M375.192 349.52C375.185 352.334 374.099 355.038 372.157 357.072C370.216 359.106 367.568 360.315 364.762 360.448C361.955 360.581 359.206 359.628 357.081 357.787C354.957 355.945 353.62 353.357 353.348 350.556C353.076 347.755 353.89 344.957 355.621 342.74C357.351 340.523 359.866 339.058 362.646 338.647C365.425 338.236 368.256 338.911 370.552 340.532C372.848 342.154 374.434 344.597 374.982 347.357C375.123 348.07 375.193 348.794 375.192 349.52Z" fill="#3F3D56"/>
<path d="M233.213 317.472C233.206 320.286 232.12 322.989 230.179 325.023C228.237 327.057 225.589 328.266 222.783 328.399C219.977 328.532 217.227 327.579 215.103 325.738C212.978 323.897 211.642 321.308 211.37 318.507C211.098 315.706 211.911 312.908 213.642 310.691C215.373 308.474 217.888 307.009 220.667 306.598C223.446 306.187 226.277 306.862 228.573 308.484C230.869 310.105 232.455 312.548 233.003 315.308C233.144 316.021 233.214 316.745 233.213 317.472Z" fill="#3F3D56"/>
<path d="M599.157 454.677C605.231 454.677 610.155 449.745 610.155 443.661C610.155 437.577 605.231 432.645 599.157 432.645C593.082 432.645 588.158 437.577 588.158 443.661C588.158 449.745 593.082 454.677 599.157 454.677Z" fill="#3F3D56"/>
<path d="M426.183 354.528C435.018 354.528 442.181 347.354 442.181 338.504C442.181 329.655 435.018 322.48 426.183 322.48C417.348 322.48 410.186 329.655 410.186 338.504C410.186 347.354 417.348 354.528 426.183 354.528Z" fill="#3F3D56"/>
<path d="M858.81 571.693L1.19049 572.001C1.03415 572.001 0.879342 571.97 0.734904 571.91C0.590466 571.851 0.459234 571.763 0.348686 571.652C0.238138 571.541 0.150436 571.41 0.0906081 571.265C0.03078 571.121 0 570.965 0 570.809C0 570.652 0.03078 570.497 0.0906081 570.353C0.150436 570.208 0.238138 570.076 0.348686 569.966C0.459234 569.855 0.590466 569.767 0.734904 569.707C0.879342 569.647 1.03415 569.616 1.19049 569.616L858.81 569.309C859.125 569.31 859.427 569.435 859.649 569.659C859.872 569.883 859.997 570.185 859.997 570.501C859.997 570.817 859.872 571.119 859.649 571.343C859.427 571.567 859.125 571.693 858.81 571.693Z" fill="#CACACA"/>
</g>
<defs>
<clipPath id="clip0_935_31060">
<rect width="860" height="572" fill="white"/>
</clipPath>
</defs>
</svg>
