<svg width="525" height="419" viewBox="0 0 525 419" fill="none" xmlns="http://www.w3.org/2000/svg">
<g clip-path="url(#clip0_935_31630)">
<path d="M442.175 400.477C444.241 400.606 445.381 398.038 443.818 396.543L443.662 395.925C443.683 395.875 443.703 395.826 443.724 395.777C444.956 392.837 448.349 391.445 451.295 392.663C460.609 396.514 450.775 405.363 451.515 411.351C451.774 413.417 459.869 413.531 459.411 415.559C463.716 406.147 465.98 395.87 465.976 385.536C465.975 382.94 465.832 380.343 465.541 377.753C465.301 375.635 464.971 373.529 464.544 371.443C462.234 360.167 457.238 349.428 450.033 340.459C446.57 338.567 448.682 335.608 446.937 332.063C446.31 330.785 440.719 330.756 440.486 329.354C440.737 329.387 444.351 325.633 443.157 323.778C442.371 322.557 442.616 321.001 443.625 319.957C443.724 319.855 443.817 319.747 443.903 319.631C446.884 315.587 450.993 316.291 453.14 321.785C457.723 324.096 457.769 327.932 454.958 331.621C453.17 333.969 452.926 337.144 451.357 339.657C451.518 339.864 451.686 340.064 451.848 340.271C454.81 344.068 457.373 348.149 459.533 352.437C458.921 347.671 459.82 341.928 461.355 338.226C463.114 333.978 466.424 330.404 469.324 326.73C472.786 322.341 479.834 324.333 480.446 329.889C480.452 329.943 480.458 329.996 480.464 330.049C480.035 330.291 479.615 330.549 479.204 330.82C476.866 332.368 477.676 335.995 480.448 336.421L480.511 336.431C480.357 337.974 474.879 342.837 474.492 344.343C478.197 358.651 475.424 360.54 464.025 360.78L463.427 361.632C464.507 364.738 465.377 367.918 466.029 371.139C466.644 374.129 467.071 377.152 467.311 380.188C467.61 384.018 467.585 387.867 467.264 391.691L467.283 391.555C468.102 387.344 470.387 383.41 473.706 380.683C478.65 376.618 485.637 375.12 490.971 371.853C493.539 370.28 496.831 372.31 496.383 375.288L496.362 375.43C495.567 375.753 494.792 376.128 494.043 376.548C493.614 376.791 493.194 377.048 492.783 377.32C490.444 378.869 491.255 382.495 494.028 382.92L494.091 382.93C494.136 382.936 494.175 382.943 494.22 382.949C492.858 386.186 479.884 390.751 477.508 393.342C475.198 405.839 476.333 405.467 465.698 401.832H465.691C464.53 406.896 462.833 411.844 460.652 416.56L442.632 416.566C442.567 416.366 442.509 416.159 442.451 415.959C444.117 416.062 445.796 415.964 447.437 415.66C446.099 414.02 444.762 412.367 443.424 410.727C443.392 410.695 443.366 410.662 443.34 410.63L443.32 410.605L441.464 404.498C441.611 403.143 441.85 401.799 442.174 400.477L442.175 400.477V400.477V400.477Z" fill="#F2F2F2"/>
<path d="M251.745 416.42L92.2879 416.475C84.2772 416.478 77.1014 412.338 73.0937 405.402C71.0895 401.934 70.0873 398.129 70.0859 394.323C70.0846 390.518 71.0848 386.712 73.086 383.243L152.764 238.194C156.767 231.254 163.94 227.11 171.951 227.107C179.962 227.105 187.137 231.244 191.146 238.18L270.934 383.192C272.933 386.652 273.933 390.452 273.933 394.255C273.933 398.058 272.933 401.864 270.932 405.334C266.929 412.273 259.756 416.417 251.745 416.42H251.745H251.745ZM72.0903 394.321C72.0901 397.785 89.6856 390.32 91.5085 393.476C95.1547 399.786 84.9992 414.478 92.2872 414.475C92.2872 414.475 265.557 410.647 269.199 404.335C271.02 401.178 271.93 397.715 271.929 394.254C271.927 390.792 271.015 387.33 269.192 384.175L189.403 239.163C185.767 232.871 179.24 229.105 171.952 229.107C164.667 229.11 72.0906 390.856 72.0903 394.321H72.0903Z" fill="#3F3D56"/>
<path d="M253.516 414.419C251.517 418.42 345.13 417.19 346.236 417.19C346.236 417.19 372.548 416.609 373.101 415.65C373.378 415.171 373.516 414.645 373.516 414.119C373.516 413.594 373.377 413.068 373.1 412.589L360.984 390.568C360.432 389.612 359.441 389.041 358.334 389.041C358.288 389.041 358.22 389.082 358.132 389.16C341.969 403.604 322.049 413.153 300.375 413.475C277.328 413.818 253.643 414.165 253.516 414.419H253.516Z" fill="#3F3D56"/>
<path d="M7.48514e-08 417.082C0.000230075 417.742 0.53044 418.272 1.19047 418.272L523.48 418.091C524.14 418.091 524.67 417.561 524.67 416.901C524.67 416.241 524.14 415.711 523.48 415.711L1.18965 415.892C0.52962 415.892 -0.000229925 416.422 7.48513e-08 417.082H7.48514e-08Z" fill="#CCCCCC"/>
<path d="M403.877 411.305L394.832 411.307L390.518 376.422L403.867 376.418L403.877 411.305Z" fill="#A0616A"/>
<path d="M372.888 411.11C372.607 411.585 372.459 413.116 372.459 413.667C372.46 415.363 373.834 416.737 375.53 416.736L403.54 416.726C404.697 416.726 405.634 415.788 405.634 414.631L405.633 413.465C405.633 413.465 407.018 409.96 404.164 405.641C404.164 405.641 400.619 409.025 395.319 403.728L393.756 400.898L382.449 409.174L376.181 409.947C374.809 410.117 373.593 409.922 372.888 411.11H372.888Z" fill="#2F2E41"/>
<path d="M369.197 381.468L360.63 384.367L345.369 352.701L358.014 348.422L369.197 381.468Z" fill="#A0616A"/>
<path d="M339.778 391.209C339.664 391.748 340.014 393.246 340.191 393.769C340.734 395.374 342.477 396.236 344.083 395.692L370.615 386.712C371.71 386.341 372.298 385.152 371.927 384.057L371.553 382.952C371.553 382.952 371.742 379.188 367.655 376.011C367.655 376.011 365.381 380.351 358.663 377.032L356.276 374.852L348.215 386.312L342.525 389.053C341.28 389.652 340.066 389.857 339.779 391.209L339.778 391.209Z" fill="#2F2E41"/>
<path d="M355.227 179.09L337.683 237.191L316.973 289.452L349.761 364.086L361.919 358.677L347.371 290.117L377.879 243.594L392.115 388.826L404.274 388.147L420.764 212.843L423.115 174.676L355.227 179.09Z" fill="#2F2E41"/>
<path d="M408.209 50.3848L382.541 55.1223L380.518 66.6068L364.984 74.0429L356.907 158.486C356.907 158.486 343.403 176.054 354.213 181.454L423.114 174.675C423.114 174.675 426.487 162.185 423.109 161C419.731 159.815 419.721 129.98 419.721 129.98L435.236 68.6145L412.266 60.5162L408.209 50.3848Z" fill="#E6E6E6"/>
<path d="M393.069 50.1622C404.517 50.1622 413.797 40.8822 413.797 29.4346C413.797 17.9871 404.517 8.70703 393.069 8.70703C381.622 8.70703 372.342 17.9871 372.342 29.4346C372.342 40.8822 381.622 50.1622 393.069 50.1622Z" fill="#A0616A"/>
<path d="M406.796 32.5123C405.142 33.4178 406.711 37.741 405.677 38.1147C404.483 38.5467 400.126 33.5876 400.072 28.033C400.056 26.3518 400.442 25.5446 400.07 23.5513C399.584 20.944 398.09 17.8688 396.707 17.9504C395.888 17.9988 395.087 19.1577 395.027 20.1918C394.944 21.6412 396.352 22.2117 396.149 22.9925C395.762 24.4796 389.85 25.5063 387.746 22.9954C386.096 21.0269 387.361 17.5707 386.623 17.3937C386.08 17.2633 385.496 19.1661 383.263 21.3163C382.422 22.1264 381.172 23.3312 380.463 22.9979C379.439 22.5162 380.183 19.1217 379.901 19.0766C379.668 19.0394 379.522 21.4253 378.222 23.5589C376.553 26.2999 373.108 28.4126 371.501 27.4826C370.517 26.9129 370.439 25.3266 370.38 24.1218C370.255 21.5836 366.567 15.7454 367.521 13.0301C369.463 7.50384 372.791 11.3994 374.296 9.5551C376.334 7.05841 378.162 8.40076 381.577 5.63114C384.914 2.9255 384.943 0.206102 387.177 0.027142C389.19 -0.134018 389.905 2.01242 392.22 1.70601C394.181 1.44644 394.607 -0.218348 396.141 0.024032C397.545 0.245932 397.637 1.71252 399.503 2.26369C400.694 2.61557 400.955 2.10626 402.304 2.26272C405.109 2.58828 406.994 5.14355 407.347 5.62221C408.708 7.46747 408.18 8.24562 409.589 10.1031C410.805 11.7049 413.498 11.0247 414.511 11.8247C417.82 14.4388 419.242 19.2597 419.271 24.7543C419.291 28.5974 418.79 30.5391 417.672 35.39C416.823 39.0734 412.89 43.8333 410.722 45.9559C410.14 46.5256 408.508 48.1229 407.361 47.6376C406.274 47.1778 406.241 45.11 406.24 44.837C406.235 43.898 406.485 42.7361 408.479 39.7944C410.573 36.7043 411.405 36.3517 411.278 35.3117C411.054 33.4736 408.114 31.7905 406.796 32.5123H406.796Z" fill="#2F2E41"/>
<path d="M334.495 225.76C333.849 231.163 336.114 235.875 339.552 236.286C342.99 236.696 346.3 232.649 346.945 227.247C347.227 224.882 346.952 222.649 346.265 220.852L348.712 197.925L337.928 197.006L336.661 219.705C335.57 221.29 334.777 223.395 334.495 225.76H334.495H334.495Z" fill="#A0616A"/>
<path d="M365.49 73.4981C365.49 73.4981 359.904 73.5775 356.205 80.8019C354.239 84.6409 343.723 156.43 343.723 156.43L334.035 215.238L350.537 215.321L363.396 159.628L374.214 127.327L365.49 73.498L365.49 73.4981Z" fill="#E6E6E6"/>
<path d="M411.93 217.13C410.35 222.337 411.755 227.372 415.068 228.378C418.381 229.384 422.348 225.978 423.928 220.772C424.62 218.493 424.74 216.246 424.378 214.356L430.797 192.211L420.341 189.42L415.122 211.547C413.771 212.917 412.622 214.851 411.93 217.13V217.13Z" fill="#A0616A"/>
<path d="M423.416 69.6328C423.416 69.6328 431.52 63.5503 438.278 73.0052C445.037 82.4602 447.766 160.144 447.766 160.144L428.868 208.112L414.68 203.389L428.17 144.614L404.512 100.038L423.416 69.6328H423.416Z" fill="#E6E6E6"/>
<path d="M218.48 384.432C258.797 384.432 291.48 351.748 291.48 311.432C291.48 271.115 258.797 238.432 218.48 238.432C178.164 238.432 145.48 271.115 145.48 311.432C145.48 351.748 178.164 384.432 218.48 384.432Z" fill="#FF7E00"/>
<path d="M218.494 356.181C222.195 356.181 225.196 353.18 225.196 349.478C225.196 345.776 222.195 342.775 218.494 342.775C214.792 342.775 211.791 345.776 211.791 349.478C211.791 353.18 214.792 356.181 218.494 356.181Z" fill="white"/>
<path d="M218.466 266.68C217.85 270.772 218.953 271.628 218.959 289.266C218.965 306.903 222.625 330.551 218.488 330.553C214.351 330.554 212.837 281.75 198.471 277.43C181.58 272.352 220.459 253.436 218.466 266.68Z" fill="white"/>
<path d="M120.504 348.702L113.908 362.637C121.882 356.92 134.336 351.991 144.246 349.352C135.012 344.891 123.713 337.7 116.963 330.58L120.756 345.304C76.2821 336.246 44.3446 302.128 44.3311 263.045L42.7246 262.492C42.7387 303.315 74.2343 339.453 120.504 348.702V348.702Z" fill="#3F3D56"/>
</g>
<defs>
<clipPath id="clip0_935_31630">
<rect width="524.67" height="418.271" fill="white"/>
</clipPath>
</defs>
</svg>
