<svg width="34" height="40" viewBox="0 0 34 40" fill="none" xmlns="http://www.w3.org/2000/svg">
<path fill-rule="evenodd" clip-rule="evenodd" d="M8.41709 31.6999H10.16V37.5114C10.16 38.8371 11.3771 39.9999 12.7714 39.9999C14.1657 39.9999 15.3857 38.8371 15.3857 37.5114V31.6999H18.8714V37.5114C18.8714 38.8371 20.0914 39.9999 21.4857 39.9999C22.8799 39.9999 24.0999 38.8371 24.0999 37.5114V31.6999H25.8428C26.8885 31.6999 27.5857 31.0371 27.5857 30.0428L27.5828 12.9571H6.67424V30.0428C6.67424 31.0371 7.37138 31.6999 8.41709 31.6999ZM2.93995 12.5171C1.74567 12.5171 0.699951 13.7714 0.699951 15.2028V27.7514C0.699951 29.1857 1.74567 30.4399 2.93995 30.4399C4.13424 30.4399 5.17995 29.1857 5.17995 27.7542V15.2028C5.17995 13.7685 4.13424 12.5142 2.93995 12.5142V12.5171ZM29.0771 15.2028V27.7514C29.0771 29.1857 30.1228 30.4399 31.32 30.4399C32.5142 30.4399 33.5599 29.1857 33.5599 27.7542V15.2028C33.5599 13.7685 32.5142 12.5142 31.32 12.5142C30.1228 12.5142 29.0771 13.7685 29.0771 15.1999V15.2028ZM25.4942 1.45708C25.5765 1.38416 25.6423 1.29464 25.6873 1.19442C25.7324 1.09419 25.7557 0.985546 25.7557 0.875652C25.7557 0.765758 25.7324 0.657114 25.6873 0.556889C25.6423 0.456665 25.5765 0.36714 25.4942 0.294224C25.3313 0.134554 25.1123 0.0451195 24.8842 0.0451195C24.6561 0.0451195 24.4371 0.134554 24.2742 0.294224L21.6571 2.78279C20.44 1.95137 18.8714 1.61994 17.1285 1.61994C15.5049 1.59434 13.8965 1.93517 12.4228 2.61708L9.98567 0.125652C9.53577 -0.040582 9.04128 -0.040582 8.59138 0.125652C8.4172 0.551383 8.4172 1.02849 8.59138 1.45422L10.8571 3.61137C8.41709 5.43994 6.67424 8.2628 6.67424 11.5199H27.5857C27.5764 9.94295 27.1729 8.39332 26.4119 7.01207C25.6509 5.63081 24.5566 4.46178 23.2285 3.61137L25.4942 1.45708ZM14.3371 8.74279H11.3685V5.75994H14.3371V8.74279ZM20.0085 8.74279V5.75994H22.9742V8.74279H20.0085Z" fill="#727474"/>
</svg>
