<svg width="36" height="40" viewBox="0 0 36 40" fill="none" xmlns="http://www.w3.org/2000/svg">
<path fill-rule="evenodd" clip-rule="evenodd" d="M35.1915 29.3458C34.2515 31.4287 33.8029 32.3572 32.5915 34.1972C30.9057 36.7687 28.5257 39.9687 25.5772 39.9944C22.9543 40.0172 22.2829 38.2887 18.7286 38.3087C15.1743 38.3287 14.4315 40.0229 11.8143 40.0001C8.86289 39.9715 6.6086 37.0858 4.92003 34.5144C0.200029 27.3315 -0.294257 18.8972 2.61717 14.4172C4.6886 11.2315 7.95146 9.37151 11.02 9.37151C14.1457 9.37151 16.1057 11.0829 18.6915 11.0829C21.1972 11.0829 22.7257 9.36865 26.3372 9.36865C29.0686 9.36865 31.9629 10.8544 34.0229 13.4229C27.2686 17.1258 28.3657 26.7715 35.1943 29.3487L35.1915 29.3458Z" fill="#727474"/>
<path fill-rule="evenodd" clip-rule="evenodd" d="M23.5971 6.49429C24.9086 4.80857 25.9057 2.42857 25.5429 0C23.4 0.148571 20.8943 1.51429 19.4286 3.28857C18.0972 4.90286 17 7.29714 17.4286 9.62286C19.7714 9.69714 22.1914 8.29714 23.5971 6.49429Z" fill="#727474"/>
</svg>
