<svg width="18" height="18" viewBox="0 0 18 18" fill="none" xmlns="http://www.w3.org/2000/svg">
<path d="M0.219947 1.28097C0.150215 1.21124 0.0949012 1.12846 0.0571625 1.03735C0.0194239 0.946237 7.34745e-10 0.848587 0 0.749971C-7.34745e-10 0.651355 0.0194239 0.553705 0.0571625 0.462596C0.0949012 0.371487 0.150215 0.288703 0.219947 0.218971C0.289679 0.149239 0.372463 0.0939246 0.463572 0.056186C0.554681 0.0184473 0.652332 -0.000976563 0.750947 -0.000976562C0.849563 -0.000976562 0.947213 0.0184473 1.03832 0.056186C1.12943 0.0939246 1.21222 0.149239 1.28195 0.218971L9.00095 7.93947L16.7199 0.218971C16.7897 0.149239 16.8725 0.0939246 16.9636 0.056186C17.0547 0.0184473 17.1523 -0.000976562 17.2509 -0.000976562C17.3496 -0.000976562 17.4472 0.0184473 17.5383 0.056186C17.6294 0.0939246 17.7122 0.149239 17.7819 0.218971C17.8517 0.288703 17.907 0.371487 17.9447 0.462596C17.9825 0.553705 18.0019 0.651355 18.0019 0.749971C18.0019 0.848587 17.9825 0.946237 17.9447 1.03735C17.907 1.12846 17.8517 1.21124 17.7819 1.28097L10.0614 8.99997L17.7819 16.719C17.8517 16.7887 17.907 16.8715 17.9447 16.9626C17.9825 17.0537 18.0019 17.1514 18.0019 17.25C18.0019 17.3486 17.9825 17.4462 17.9447 17.5373C17.907 17.6285 17.8517 17.7112 17.7819 17.781C17.7122 17.8507 17.6294 17.906 17.5383 17.9438C17.4472 17.9815 17.3496 18.0009 17.2509 18.0009C17.1523 18.0009 17.0547 17.9815 16.9636 17.9438C16.8725 17.906 16.7897 17.8507 16.7199 17.781L9.00095 10.0605L1.28195 17.781C1.21222 17.8507 1.12943 17.906 1.03832 17.9438C0.947213 17.9815 0.849563 18.0009 0.750947 18.0009C0.652332 18.0009 0.554681 17.9815 0.463572 17.9438C0.372463 17.906 0.289679 17.8507 0.219947 17.781C0.150215 17.7112 0.0949012 17.6285 0.0571625 17.5373C0.0194239 17.4462 0 17.3486 0 17.25C0 17.1514 0.0194239 17.0537 0.0571625 16.9626C0.0949012 16.8715 0.150215 16.7887 0.219947 16.719L7.94045 8.99997L0.219947 1.28097Z" fill="#020105"/>
</svg>
