<svg width="22" height="22" viewBox="0 0 22 22" fill="none" xmlns="http://www.w3.org/2000/svg">
<path d="M17.7145 8.67918C17.7145 8.67918 17.2167 14.8529 16.928 17.4535C16.7905 18.6956 16.0232 19.4234 14.7665 19.4464C12.3749 19.4894 9.98055 19.4922 7.58989 19.4418C6.3808 19.417 5.62639 18.68 5.49164 17.4599C5.20105 14.8364 4.70605 8.67918 4.70605 8.67918" stroke="#200E32" stroke-width="1.5" stroke-linecap="round" stroke-linejoin="round"/>
<path d="M18.9825 5.71972H3.43768" stroke="#200E32" stroke-width="1.5" stroke-linecap="round" stroke-linejoin="round"/>
<path d="M15.9872 5.71972C15.2676 5.71972 14.648 5.21097 14.5068 4.50605L14.284 3.39139C14.1465 2.87714 13.6809 2.52147 13.1501 2.52147H9.26988C8.73913 2.52147 8.27347 2.87714 8.13597 3.39139L7.91322 4.50605C7.77205 5.21097 7.15238 5.71972 6.4328 5.71972" stroke="#200E32" stroke-width="1.5" stroke-linecap="round" stroke-linejoin="round"/>
</svg>
