<svg width="388" height="361" viewBox="0 0 388 361" fill="none" xmlns="http://www.w3.org/2000/svg">
<g clip-path="url(#clip0_812_28232)">
<path d="M18.0289 343.995C23.4108 355.119 34.8333 359.895 34.8333 359.895C34.8333 359.895 37.5298 346.634 32.1479 335.51C26.7659 324.385 15.3435 319.61 15.3435 319.61C15.3435 319.61 12.6469 332.871 18.0289 343.995Z" fill="#2F2E41"/>
<path d="M21.7282 340.335C31.4449 346.851 35.187 359.792 35.187 359.792C35.187 359.792 23.1754 362.17 13.4588 355.654C3.74218 349.139 0 336.198 0 336.198C0 336.198 12.0116 333.82 21.7282 340.335Z" fill="#FF7E00"/>
<path d="M239.578 17.3305H178.953V18.2958H239.578V17.3305Z" fill="#F2F2F2"/>
<path d="M223.12 18.0544H222.254V26.9833H223.12V18.0544Z" fill="#F2F2F2"/>
<path d="M196.706 18.0544H195.84V26.9833H196.706V18.0544Z" fill="#F2F2F2"/>
<path d="M270.32 63.6638H209.695V64.6291H270.32V63.6638Z" fill="#F2F2F2"/>
<path d="M227.018 54.9763H226.152V63.9051H227.018V54.9763Z" fill="#F2F2F2"/>
<path d="M253.432 54.9763H252.566V63.9051H253.432V54.9763Z" fill="#F2F2F2"/>
<path d="M350.867 85.3825H290.242V86.3478H350.867V85.3825Z" fill="#F2F2F2"/>
<path d="M307.561 76.6951H306.695V85.6239H307.561V76.6951Z" fill="#F2F2F2"/>
<path d="M333.979 76.6951H333.113V85.6239H333.979V76.6951Z" fill="#F2F2F2"/>
<path d="M344.805 309.327H284.18V310.292H344.805V309.327Z" fill="#F2F2F2"/>
<path d="M301.499 300.639H300.633V309.568H301.499V300.639Z" fill="#F2F2F2"/>
<path d="M327.917 300.639H327.051V309.568H327.917V300.639Z" fill="#F2F2F2"/>
<path d="M241.309 154.4H180.684V155.365H241.309V154.4Z" fill="#F2F2F2"/>
<path d="M198.007 145.712H197.141V154.641H198.007V145.712Z" fill="#F2F2F2"/>
<path d="M224.421 145.712H223.555V154.641H224.421V145.712Z" fill="#F2F2F2"/>
<path d="M260.363 270.716H199.738V271.681H260.363V270.716Z" fill="#F2F2F2"/>
<path d="M217.061 262.028H216.195V270.957H217.061V262.028Z" fill="#F2F2F2"/>
<path d="M243.475 262.028H242.609V270.957H243.475V262.028Z" fill="#F2F2F2"/>
<path d="M357.363 235.483H296.738V236.448H357.363V235.483Z" fill="#F2F2F2"/>
<path d="M314.057 226.796H313.191V235.725H314.057V226.796Z" fill="#F2F2F2"/>
<path d="M340.475 226.796H339.609V235.725H340.475V226.796Z" fill="#F2F2F2"/>
<path d="M156.787 338.901H54.25V338.079H156.049V298.204H62.87L58.3435 287.693L59.0086 287.338L63.3342 297.381H156.787V338.901Z" fill="#2F2E41"/>
<path d="M67.894 359.045C72.1718 359.045 75.6396 355.18 75.6396 350.412C75.6396 345.644 72.1718 341.779 67.894 341.779C63.6163 341.779 60.1484 345.644 60.1484 350.412C60.1484 355.18 63.6163 359.045 67.894 359.045Z" fill="#3F3D56"/>
<path d="M144.246 359.045C148.523 359.045 151.991 355.18 151.991 350.412C151.991 345.644 148.523 341.779 144.246 341.779C139.968 341.779 136.5 345.644 136.5 350.412C136.5 355.18 139.968 359.045 144.246 359.045Z" fill="#3F3D56"/>
<path d="M234.24 172.411C236.888 172.411 239.035 170.018 239.035 167.067C239.035 164.115 236.888 161.723 234.24 161.723C231.592 161.723 229.445 164.115 229.445 167.067C229.445 170.018 231.592 172.411 234.24 172.411Z" fill="#3F3D56"/>
<path d="M167.752 284.638H52.5003L27.5625 193.788H193.434L193.283 194.322L167.752 284.638ZM53.046 283.816H167.211L192.429 194.61H28.5595L53.046 283.816Z" fill="#2F2E41"/>
<path d="M158.755 279.91H57.5249L35.6211 199.337H181.312L181.18 199.811L158.755 279.91Z" fill="#F2F2F2"/>
<path d="M195.498 185.671L194.785 185.46L199.653 165.011H227.969V165.834H200.221L195.498 185.671Z" fill="#2F2E41"/>
<path d="M185.145 221.33H35.6211V222.152H185.145V221.33Z" fill="#2F2E41"/>
<path d="M176.58 251.621H43.9336V252.443H176.58V251.621Z" fill="#2F2E41"/>
<path d="M110.867 194.199H110.129V284.227H110.867V194.199Z" fill="#2F2E41"/>
<path d="M143.893 194.173L138.598 284.199L139.334 284.252L144.629 194.227L143.893 194.173Z" fill="#2F2E41"/>
<path d="M77.1151 194.172L76.3789 194.225L81.6435 284.253L82.3797 284.2L77.1151 194.172Z" fill="#2F2E41"/>
<path d="M388 359.566H0V360.531H388V359.566Z" fill="#2F2E41"/>
<path d="M257.832 29.8638C257.832 29.8638 264.162 49.9446 260.267 53.0339C256.371 56.1233 273.414 81.353 273.414 81.353L293.866 75.1743L282.666 54.0637C282.666 54.0637 281.205 32.9531 281.205 29.8637C281.205 26.7744 257.832 29.8638 257.832 29.8638Z" fill="#A0616A"/>
<path opacity="0.1" d="M257.832 29.8638C257.832 29.8638 264.162 49.9446 260.267 53.0339C256.371 56.1233 273.414 81.353 273.414 81.353L293.866 75.1743L282.666 54.0637C282.666 54.0637 281.205 32.9531 281.205 29.8637C281.205 26.7744 257.832 29.8638 257.832 29.8638Z" fill="black"/>
<path d="M247.208 173.004C247.208 173.004 245.36 198.748 247.208 212.136C249.056 225.523 251.828 262.595 251.828 262.595C251.828 262.595 251.828 332.62 261.991 333.65C272.155 334.68 279.546 335.71 280.47 331.591C281.394 327.471 275.85 325.412 278.622 323.352C281.394 321.293 282.318 314.084 278.622 305.846C274.926 297.608 278.622 214.195 278.622 214.195L296.177 266.714C296.177 266.714 298.025 309.965 299.873 316.144C301.721 322.323 298.025 333.65 304.493 334.68C310.96 335.71 318.352 329.531 322.048 327.471C325.744 325.412 316.504 325.412 318.352 324.382C320.2 323.352 325.744 320.263 323.896 319.233C322.048 318.203 320.2 268.774 320.2 268.774C320.2 268.774 315.118 163.221 308.651 159.102C302.183 154.983 298.025 162.078 298.025 162.078L247.208 173.004Z" fill="#2F2E41"/>
<path d="M263.84 329.531V337.769C263.84 337.769 255.525 360.163 263.84 360.163C272.156 360.163 278.624 362.484 278.624 359.395V331.591L263.84 329.531Z" fill="#2F2E41"/>
<path d="M318.353 329.516V337.755C318.353 337.755 326.669 360.149 318.353 360.149C310.038 360.149 303.57 362.47 303.57 359.38V331.576L318.353 329.516Z" fill="#2F2E41"/>
<path d="M270.768 44.7956C279.953 44.7956 287.399 36.4967 287.399 26.2595C287.399 16.0223 279.953 7.72339 270.768 7.72339C261.583 7.72339 254.137 16.0223 254.137 26.2595C254.137 36.4967 261.583 44.7956 270.768 44.7956Z" fill="#A0616A"/>
<path d="M265.688 60.7573C265.688 60.7573 270.307 76.2041 277.699 73.1147L285.091 70.0253L298.026 168.885C298.026 168.885 287.863 185.361 273.079 175.063C258.296 164.766 265.688 60.7573 265.688 60.7573Z" fill="#FF7E00"/>
<path d="M278.625 57.668L282.783 47.885C282.783 47.885 307.267 60.7573 310.963 64.8765C314.659 68.9956 314.659 75.1743 314.659 75.1743L308.191 100.919C308.191 100.919 310.039 157.557 310.039 159.617C310.039 161.676 316.507 173.004 311.887 168.885C307.267 164.766 306.343 160.646 302.648 166.825C298.952 173.004 290.636 180.212 290.636 180.212L278.625 57.668Z" fill="#3F3D56"/>
<path d="M310.962 131.812L308.19 160.646C308.19 160.646 291.559 177.123 295.255 178.153C298.95 179.183 300.798 175.063 300.798 175.063C300.798 175.063 307.266 182.272 310.962 178.153C314.658 174.034 323.897 134.902 323.897 134.902L310.962 131.812Z" fill="#A0616A"/>
<path d="M271.123 0.0626808C267.436 -0.08422 263.49 -0.156887 260.382 2.05753C258.952 3.16885 257.697 4.53755 256.67 6.10761C253.642 10.3734 251.026 15.7407 252.151 21.0334L253.457 20.4656C253.457 21.8784 253.175 23.2735 252.632 24.55C252.816 23.9539 253.432 24.9175 253.267 25.5205L251.828 30.7816C254.193 29.8152 257.136 31.7719 257.496 34.5509C257.66 28.4401 258.229 21.4329 262.677 17.8548C264.92 16.0504 267.758 15.4995 270.489 15.0104C273.009 14.5591 275.65 14.1288 278.063 15.0532C280.477 15.9777 282.532 18.7285 281.985 21.5066C283.097 21.0793 284.342 21.9437 284.892 23.1034C285.442 24.2631 285.471 25.6312 285.487 26.9428C286.673 27.8771 288.023 26.0219 288.507 24.4953C289.641 20.912 290.65 17.0977 290.039 13.3594C289.427 9.62105 286.694 6.0485 283.285 6.03583C283.699 5.52922 283.919 4.86307 283.9 4.17827L281.09 3.91364C281.804 3.80106 282.46 3.41553 282.946 2.8231C281.818 4.20679 272.947 0.135371 271.123 0.0626808Z" fill="#2F2E41"/>
<path d="M270.308 54.5786C270.308 54.5786 262.787 46.3637 260.08 46.8669C257.373 47.3701 253.677 54.5786 253.677 54.5786C253.677 54.5786 231.503 62.8169 232.427 71.0551C233.35 79.2934 243.514 119.455 243.514 119.455C243.514 119.455 251.829 167.855 244.438 173.004C237.046 178.153 279.548 191.54 280.472 185.361C281.396 179.183 283.244 117.395 280.472 108.127C277.7 98.8593 270.308 54.5786 270.308 54.5786Z" fill="#3F3D56"/>
<path d="M302.648 71.0551H314.073C314.073 71.0551 322.051 110.187 322.975 114.306C323.899 118.425 325.747 137.991 324.823 137.991C323.899 137.991 305.42 133.872 305.42 136.961L302.648 71.0551Z" fill="#3F3D56"/>
<path d="M302.26 167.958H258.524C254.256 146.075 253.899 124.933 258.524 104.733H302.26C295.202 124.569 294.761 145.567 302.26 167.958Z" fill="#F2F2F2"/>
<path d="M240.742 141.081L253.677 147.259C253.677 147.259 278.624 151.378 278.624 140.051C278.624 128.723 253.677 134.902 253.677 134.902L245.361 131.938L240.742 141.081Z" fill="#A0616A"/>
<path d="M243.513 64.8764L232.425 67.9658L224.11 122.544C224.11 122.544 221.338 136.961 225.958 137.991C230.577 139.021 243.513 147.259 243.513 147.259C243.513 147.259 245.361 131.812 249.056 131.812L239.817 123.574L245.361 87.5317L243.513 64.8764Z" fill="#3F3D56"/>
<path d="M86.7148 170.327H26.0898V171.292H86.7148V170.327Z" fill="#F2F2F2"/>
<path d="M43.4129 161.64H42.5469V170.568H43.4129V161.64Z" fill="#F2F2F2"/>
<path d="M69.827 161.64H68.9609V170.568H69.827V161.64Z" fill="#F2F2F2"/>
<path d="M107.934 27.4659H47.3086V28.4312H107.934V27.4659Z" fill="#F2F2F2"/>
<path d="M91.4794 28.1899H90.6133V37.1187H91.4794V28.1899Z" fill="#F2F2F2"/>
<path d="M65.0614 28.1899H64.1953V37.1187H65.0614V28.1899Z" fill="#F2F2F2"/>
<path d="M168.992 122.546H108.367V123.511H168.992V122.546Z" fill="#F2F2F2"/>
<path d="M152.538 123.27H151.672V132.199H152.538V123.27Z" fill="#F2F2F2"/>
<path d="M126.124 123.27H125.258V132.199H126.124V123.27Z" fill="#F2F2F2"/>
<path d="M65.9297 122.063H5.30469V123.028H65.9297V122.063Z" fill="#F2F2F2"/>
<path d="M49.4754 122.787H48.6094V131.716H49.4754V122.787Z" fill="#F2F2F2"/>
<path d="M23.0614 122.787H22.1953V131.716H23.0614V122.787Z" fill="#F2F2F2"/>
<path d="M138.68 73.7992H78.0547V74.7645H138.68V73.7992Z" fill="#F2F2F2"/>
<path d="M95.3739 65.1118H94.5078V74.0406H95.3739V65.1118Z" fill="#F2F2F2"/>
<path d="M121.792 65.1118H120.926V74.0406H121.792V65.1118Z" fill="#F2F2F2"/>
</g>
<defs>
<clipPath id="clip0_812_28232">
<rect width="388" height="361" fill="white"/>
</clipPath>
</defs>
</svg>
