<svg width="423" height="316" viewBox="0 0 423 316" fill="none" xmlns="http://www.w3.org/2000/svg">
<g clip-path="url(#clip0_5914_46195)">
<path d="M308.873 300.248H300.456L296.451 267.8H308.873V300.248Z" fill="#FFB8B8"/>
<path d="M313.315 314.823H307.279L306.202 309.127L303.443 314.823H287.434C286.667 314.823 285.92 314.578 285.302 314.124C284.684 313.669 284.227 313.029 283.999 312.297C283.77 311.565 283.782 310.779 284.032 310.054C284.283 309.329 284.758 308.702 285.39 308.267L298.173 299.442V293.684L311.62 294.486L313.315 314.823Z" fill="#2F2E41"/>
<path d="M358.876 289.631L352.122 294.651L329.536 271.002L339.504 263.593L358.876 289.631Z" fill="#FFB8B8"/>
<path d="M371.142 298.678L366.299 302.278L362.034 298.35L363.22 304.566L350.374 314.114C349.758 314.572 349.012 314.821 348.245 314.825C347.478 314.828 346.729 314.587 346.109 314.136C345.488 313.684 345.028 313.047 344.796 312.316C344.564 311.584 344.572 310.798 344.819 310.072L349.809 295.366L346.371 290.745L357.64 283.369L371.142 298.678Z" fill="#2F2E41"/>
<path d="M318.672 132.833C318.672 132.833 334.641 146.623 327.273 185.935L318.278 224.454L347.614 273.098L338.26 284.471L300.123 231.82L286.303 199.419L282.425 141.751L318.672 132.833Z" fill="#2F2E41"/>
<path d="M293.92 208.651L292.96 223.52L295.899 286.878L309.731 284.47L312.374 239.36L293.92 208.651Z" fill="#2F2E41"/>
<path d="M116.424 307.877L123.951 307.877L127.531 278.859L116.423 278.86L116.424 307.877Z" fill="#FFB6B6"/>
<path d="M114.504 305.421L116.623 305.421L124.894 302.059L129.327 305.42H129.327C131.833 305.42 134.235 306.415 136.007 308.186C137.778 309.956 138.773 312.358 138.774 314.862V315.169L114.504 315.169L114.504 305.421Z" fill="#2F2E41"/>
<path d="M145.591 303.136L152.933 304.793L162.821 277.277L151.985 274.831L145.591 303.136Z" fill="#FFB6B6"/>
<path d="M144.26 300.317L146.326 300.784L155.135 299.325L158.719 303.58L158.719 303.58C161.163 304.132 163.287 305.631 164.625 307.749C165.963 309.866 166.404 312.427 165.853 314.87L165.785 315.169L142.112 309.827L144.26 300.317Z" fill="#2F2E41"/>
<path d="M106.891 130.479C103.362 141.116 103.735 152.664 107.739 165.057L109.451 234.834C109.451 234.834 106.901 280.593 115.13 296.695H127.064L132.973 230.656L133.715 186.329L159.301 223.726L143.005 295.615L157.693 296.928L184.138 218.911L151.51 143.221L106.891 130.479Z" fill="#2F2E41"/>
<path d="M244.521 100.177C253.649 91.9553 267.227 87.8212 278.616 92.4315C266.934 98.9147 257.921 109.319 253.175 121.805C251.362 126.626 249.847 132.178 245.388 134.759C242.613 136.366 239.16 136.444 236.049 135.669C232.938 134.893 230.086 133.339 227.273 131.8L226.473 131.782C230.065 120.036 235.393 108.399 244.521 100.177Z" fill="#E6E6E6"/>
<path d="M278.553 92.6807C268.466 93.9836 259.046 98.4302 251.631 105.389C250.008 106.859 248.627 108.575 247.539 110.474C246.539 112.359 246.062 114.477 246.158 116.608C246.207 118.597 246.488 120.626 246.053 122.592C245.815 123.595 245.368 124.537 244.74 125.355C244.113 126.173 243.32 126.85 242.412 127.34C240.183 128.621 237.627 129.025 235.113 129.333C232.322 129.674 229.418 129.985 227.002 131.55C226.71 131.74 226.432 131.275 226.725 131.085C230.928 128.363 236.247 129.354 240.766 127.537C242.875 126.689 244.741 125.201 245.402 122.951C245.979 120.983 245.691 118.891 245.624 116.878C245.5 114.8 245.887 112.724 246.751 110.83C247.739 108.881 249.052 107.115 250.632 105.606C254.137 102.153 258.163 99.2719 262.563 97.0688C267.571 94.5266 272.977 92.8594 278.548 92.1393C278.892 92.0949 278.895 92.6366 278.553 92.6807Z" fill="white"/>
<path d="M253.887 103.009C252.888 101.607 252.419 99.8953 252.566 98.1803C252.713 96.4653 253.464 94.8582 254.687 93.646C254.935 93.4016 255.327 93.7757 255.078 94.0204C253.938 95.1471 253.238 96.6442 253.104 98.2415C252.971 99.8388 253.414 101.431 254.352 102.731C254.555 103.014 254.089 103.29 253.887 103.009Z" fill="white"/>
<path d="M246 115.603C249.466 116.217 253.037 115.502 255.999 113.602C256.293 113.413 256.57 113.878 256.277 114.067C253.19 116.039 249.473 116.775 245.867 116.128C245.524 116.066 245.658 115.541 246 115.603Z" fill="white"/>
<path d="M267.615 95.2437C267.889 95.8667 268.313 96.412 268.849 96.8306C269.386 97.2493 270.018 97.5282 270.689 97.6424C271.033 97.6999 270.898 98.2244 270.556 98.1673C269.816 98.0377 269.118 97.7288 268.524 97.2675C267.93 96.8063 267.459 96.2067 267.15 95.5212C267.116 95.459 267.106 95.3861 267.124 95.3171C267.141 95.2482 267.184 95.1885 267.244 95.1501C267.306 95.1136 267.379 95.103 267.449 95.1206C267.518 95.1381 267.578 95.1824 267.615 95.2437Z" fill="white"/>
<path d="M291.158 132.081C290.942 132.052 290.726 132.022 290.507 131.995C287.601 131.61 284.669 131.461 281.739 131.55C281.512 131.553 281.283 131.56 281.057 131.57C274 131.86 267.059 133.457 260.586 136.28C258.011 137.405 255.525 138.725 253.151 140.228C249.872 142.303 246.482 144.814 242.816 145.66C242.435 145.753 242.048 145.822 241.658 145.866L226.512 132.759C226.493 132.712 226.47 132.668 226.451 132.621L225.822 132.125C225.939 132.039 226.062 131.952 226.179 131.866C226.247 131.816 226.318 131.769 226.386 131.719C226.432 131.686 226.478 131.654 226.518 131.622C226.534 131.611 226.549 131.6 226.561 131.593C226.601 131.561 226.642 131.535 226.679 131.507C227.366 131.02 228.058 130.537 228.755 130.058C228.758 130.055 228.758 130.055 228.764 130.054C234.039 126.356 239.734 123.296 245.73 120.939C245.91 120.871 246.093 120.8 246.279 120.738C248.98 119.734 251.757 118.953 254.585 118.402C256.134 118.105 257.698 117.887 259.269 117.748C263.33 117.397 267.42 117.687 271.391 118.606C279.307 120.441 286.547 124.785 290.835 131.561C290.945 131.734 291.051 131.905 291.158 132.081Z" fill="#E6E6E6"/>
<path d="M290.957 132.244C282.119 127.214 271.919 125.096 261.807 126.19C259.626 126.387 257.49 126.926 255.477 127.788C253.543 128.691 251.886 130.095 250.679 131.854C249.52 133.472 248.523 135.261 246.991 136.569C246.196 137.227 245.272 137.71 244.278 137.985C243.285 138.261 242.244 138.324 241.224 138.169C238.673 137.851 236.388 136.635 234.196 135.368C231.762 133.961 229.255 132.462 226.384 132.257C226.036 132.233 226.095 131.694 226.442 131.719C231.438 132.075 235.088 136.067 239.791 137.336C241.986 137.928 244.372 137.863 246.254 136.464C247.901 135.24 248.931 133.397 250.09 131.748C251.243 130.015 252.803 128.59 254.633 127.598C256.596 126.636 258.708 126.016 260.879 125.763C265.757 125.114 270.707 125.237 275.548 126.126C281.077 127.11 286.398 129.032 291.279 131.809C291.581 131.981 291.257 132.415 290.957 132.244Z" fill="white"/>
<path d="M265.042 125.646C265.089 123.925 265.746 122.277 266.896 120.996C268.046 119.715 269.615 118.884 271.321 118.652C271.666 118.606 271.754 119.141 271.408 119.187C269.819 119.4 268.358 120.174 267.289 121.369C266.221 122.564 265.615 124.102 265.581 125.704C265.573 126.052 265.035 125.992 265.042 125.646Z" fill="white"/>
<path d="M251.158 130.957C253.556 133.533 256.838 135.111 260.348 135.376C260.696 135.402 260.637 135.94 260.29 135.915C256.637 135.632 253.226 133.982 250.737 131.296C250.499 131.04 250.923 130.702 251.158 130.957Z" fill="white"/>
<path d="M280.681 127.708C280.524 128.37 280.534 129.061 280.71 129.718C280.887 130.375 281.223 130.978 281.69 131.473C281.93 131.726 281.507 132.064 281.268 131.812C280.755 131.263 280.384 130.597 280.188 129.871C279.991 129.145 279.976 128.383 280.143 127.65C280.152 127.58 280.189 127.516 280.244 127.471C280.3 127.426 280.37 127.405 280.441 127.41C280.512 127.418 280.577 127.454 280.622 127.51C280.667 127.566 280.688 127.637 280.681 127.708Z" fill="white"/>
<path d="M25.1402 307.35C24.4293 310.016 22.5612 312.236 20.3057 313.853C19.938 314.118 19.5604 314.363 19.178 314.593C19.0603 314.662 18.9426 314.736 18.82 314.799C18.6876 314.878 18.5553 314.951 18.4229 315.02H7.81726C7.62604 314.633 7.43972 314.241 7.2534 313.853C2.70814 304.306 -0.483839 294.005 0.0604153 283.512C0.276341 279.442 1.13179 275.432 2.59536 271.628C5.50786 264.046 10.8229 257.484 18.1336 254.181C18.315 254.097 18.5062 254.014 18.6925 253.936C18.6337 254.146 18.5749 254.352 18.516 254.563C17.7317 257.387 17.1775 260.27 16.8587 263.183C16.8293 263.409 16.8048 263.634 16.7852 263.865C16.0886 270.891 16.7072 277.986 18.6092 284.786C18.6141 284.801 18.619 284.821 18.6239 284.835C19.0407 286.34 19.5245 287.822 20.0752 289.28C20.5067 290.432 20.9725 291.569 21.4825 292.687C23.6105 297.377 26.4641 302.376 25.1402 307.35Z" fill="#E6E6E6"/>
<path d="M18.8249 254.156C18.7219 254.293 18.6189 254.425 18.516 254.563C16.3624 257.415 14.5337 260.499 13.0636 263.757C12.9852 263.918 12.9116 264.08 12.8479 264.247C10.8336 268.796 9.54006 273.63 9.01359 278.577C9.0079 278.611 9.00463 278.645 9.00379 278.68C8.88121 279.836 8.80766 281.003 8.77824 282.169C8.66921 284.355 8.90584 286.545 9.4794 288.658C10.0024 290.383 10.9188 291.963 12.1565 293.274C12.2791 293.407 12.4017 293.539 12.5341 293.666C12.6322 293.769 12.74 293.872 12.843 293.97C13.8334 294.916 14.917 295.793 15.8486 296.808C16.2756 297.263 16.6613 297.755 17.0009 298.278C17.543 299.155 17.8931 300.137 18.0283 301.159C18.1635 302.181 18.0807 303.22 17.7854 304.208C17.1186 306.688 15.5937 308.781 14.0345 310.775C13.2549 311.775 12.4507 312.785 11.7545 313.853C11.4995 314.235 11.2642 314.622 11.0485 315.019H10.4306C10.6366 314.622 10.8621 314.235 11.1073 313.853C12.897 311.035 15.4417 308.614 16.7607 305.512C17.6531 303.419 17.9227 301.047 16.795 298.994C16.4645 298.397 16.0645 297.84 15.6035 297.337C14.7062 296.323 13.6324 295.455 12.6567 294.539C12.4115 294.308 12.1713 294.073 11.9408 293.828C10.7191 292.587 9.77626 291.1 9.17543 289.466C8.49501 287.391 8.17333 285.215 8.22421 283.032C8.22421 281.64 8.29776 280.238 8.43505 278.846C8.44976 278.67 8.46937 278.488 8.48899 278.307C9.49171 269.549 12.8218 261.218 18.1336 254.18C18.2316 254.043 18.3346 253.911 18.4376 253.778C18.6484 253.504 19.0357 253.886 18.8249 254.156Z" fill="white"/>
<path d="M8.68696 278.893C6.98864 278.608 5.44702 277.728 4.3374 276.412C3.22779 275.096 2.62244 273.428 2.62945 271.707C2.63039 271.637 2.65855 271.569 2.708 271.52C2.75744 271.47 2.82432 271.441 2.89453 271.44C2.96474 271.438 3.03281 271.464 3.08439 271.511C3.13596 271.559 3.16703 271.625 3.17104 271.695C3.16154 273.298 3.72558 274.851 4.76136 276.075C5.79714 277.298 7.23642 278.112 8.81944 278.368C9.16339 278.424 9.02894 278.948 8.68696 278.893Z" fill="white"/>
<path d="M12.0205 293.373C14.9059 291.358 16.925 288.329 17.6754 284.891C17.7495 284.55 18.2745 284.683 18.2006 285.023C17.413 288.599 15.3053 291.747 12.2982 293.838C12.0114 294.037 11.7353 293.571 12.0205 293.373Z" fill="white"/>
<path d="M12.9014 263.7C13.5355 263.947 14.2212 264.033 14.8967 263.95C15.5722 263.867 16.2165 263.617 16.7717 263.224C17.0558 263.021 17.3316 263.487 17.0494 263.689C16.4339 264.12 15.722 264.395 14.9759 264.489C14.2297 264.582 13.472 264.492 12.7689 264.225C12.7006 264.205 12.6422 264.16 12.6057 264.099C12.5693 264.038 12.5574 263.966 12.5726 263.896C12.5905 263.827 12.6351 263.767 12.6967 263.731C12.7582 263.694 12.8318 263.683 12.9014 263.7Z" fill="white"/>
<path d="M55.6086 273.108C55.437 273.24 55.2605 273.373 55.0889 273.51C52.761 275.291 50.5817 277.257 48.5726 279.391C48.4157 279.553 48.2588 279.719 48.1068 279.886L48.1019 279.891C43.3379 285.06 39.5711 291.065 36.9912 297.603L36.9765 297.647C36.9716 297.661 36.9667 297.671 36.9618 297.686C35.9392 300.303 35.1148 302.993 34.4955 305.733C33.8973 308.409 33.407 311.276 32.4705 313.854C32.3283 314.251 32.1714 314.643 32.0047 315.02H10.2051C10.2786 314.633 10.3571 314.241 10.4355 313.854C11.5445 308.175 13.2776 302.636 15.6035 297.338C15.6819 297.161 15.7604 296.985 15.8486 296.809C17.0494 294.191 18.4612 291.675 20.0703 289.286L20.0707 289.284L20.0717 289.282L20.0733 289.281L20.0752 289.281C20.9588 287.977 21.9079 286.72 22.9191 285.512C25.5414 282.394 28.639 279.708 32.0978 277.553C32.1175 277.538 32.142 277.529 32.1616 277.514C39.0457 273.245 47.2046 271.212 55.0055 272.971H55.0105C55.2115 273.015 55.4076 273.059 55.6086 273.108Z" fill="#E6E6E6"/>
<path d="M55.5841 273.367C55.4174 273.411 55.2507 273.46 55.0889 273.509C51.6526 274.491 48.3357 275.85 45.1992 277.562C45.0423 277.646 44.8854 277.734 44.7285 277.822C40.3939 280.24 36.4592 283.313 33.0638 286.933C33.0611 286.935 33.0594 286.939 33.0589 286.943C33.0196 286.982 32.9755 287.026 32.9412 287.065C32.1567 287.908 31.4016 288.785 30.6857 289.687C29.2854 291.368 28.1571 293.259 27.3417 295.289C26.7187 296.981 26.4988 298.795 26.6994 300.587C26.7141 300.768 26.7386 300.944 26.7632 301.126C26.7828 301.268 26.8024 301.41 26.8269 301.557C27.1505 303.522 27.7095 305.492 27.5526 307.497C27.4571 308.524 27.1452 309.519 26.6373 310.417C26.1294 311.315 25.437 312.095 24.6058 312.706C24.0407 313.143 23.4367 313.527 22.8014 313.853C21.893 314.321 20.9466 314.711 19.9722 315.02H18.0453C18.3052 314.946 18.5601 314.873 18.82 314.799C19.7422 314.539 20.6477 314.223 21.5315 313.853C22.0364 313.642 22.5276 313.4 23.0024 313.128C24.9735 311.996 26.6161 310.261 26.9593 307.943C27.2584 305.914 26.6798 303.885 26.3366 301.9C26.2778 301.557 26.2238 301.219 26.1944 300.881C25.9603 299.162 26.1025 297.413 26.6112 295.754C27.3167 293.686 28.3714 291.753 29.7296 290.04C30.5698 288.925 31.4666 287.853 32.4166 286.83C32.5342 286.698 32.6568 286.565 32.7843 286.433C36.2511 282.788 40.254 279.692 44.6549 277.254H44.6598C47.9321 275.433 51.4036 273.996 55.0056 272.97H55.0105C55.1723 272.921 55.339 272.872 55.5008 272.828C55.8391 272.74 55.9175 273.274 55.5841 273.367Z" fill="white"/>
<path d="M32.5903 287.016C31.406 285.766 30.7048 284.137 30.6117 282.418C30.5186 280.699 31.0398 279.003 32.0823 277.633C32.2941 277.357 32.734 277.673 32.5218 277.95C31.5488 279.224 31.0634 280.803 31.1533 282.404C31.2433 284.004 31.9026 285.52 33.0122 286.677C33.2531 286.928 32.8298 287.266 32.5903 287.016Z" fill="white"/>
<path d="M26.5298 300.583C30.0478 300.71 33.4844 299.507 36.1544 297.214C36.4187 296.986 36.7579 297.408 36.4939 297.635C33.711 300.017 30.1322 301.262 26.4715 301.122C26.1226 301.108 26.1828 300.57 26.5298 300.583Z" fill="white"/>
<path d="M45.1073 277.421C45.4647 278 45.9604 278.481 46.5499 278.821C47.1393 279.161 47.804 279.35 48.4844 279.37C48.8333 279.379 48.7727 279.917 48.4261 279.908C47.6745 279.882 46.9406 279.673 46.2886 279.299C45.6365 278.924 45.0861 278.396 44.6854 277.76C44.6426 277.703 44.623 277.632 44.6307 277.562C44.6383 277.491 44.6726 277.426 44.7266 277.38C44.7827 277.335 44.8541 277.314 44.9254 277.322C44.9967 277.33 45.0621 277.365 45.1073 277.421Z" fill="white"/>
<path d="M223.773 84.8485C223.27 85.5101 222.628 86.0534 221.892 86.4401C221.156 86.8267 220.344 87.0474 219.513 87.0866C218.683 87.1257 217.854 86.9823 217.085 86.6666C216.315 86.3508 215.625 85.8704 215.062 85.259L196.527 93.3161L198.333 82.9745L215.656 76.9088C216.747 76.0312 218.121 75.5837 219.519 75.6512C220.918 75.7187 222.243 76.2966 223.243 77.2753C224.244 78.2539 224.85 79.5654 224.948 80.9612C225.045 82.357 224.627 83.7401 223.773 84.8485Z" fill="#FFB8B8"/>
<path d="M211.405 88.0773L168.356 107.244L168.264 107.211L119.199 89.7348C115.544 87.8257 112.758 84.5924 111.41 80.6969C110.063 76.8014 110.256 72.5385 111.951 68.7809C112.89 66.7048 114.259 64.851 115.967 63.3417C117.674 61.8324 119.683 60.7017 121.859 60.0241C124.036 59.3464 126.331 59.1372 128.594 59.4101C130.857 59.6831 133.037 60.4321 134.99 61.6077L171.503 83.5925L206.91 79.0059L211.405 88.0773Z" fill="#E6E6E6"/>
<path d="M423 315.417C423 315.494 422.985 315.57 422.956 315.641C422.927 315.711 422.884 315.776 422.83 315.83C422.775 315.884 422.711 315.927 422.64 315.956C422.569 315.986 422.493 316.001 422.417 316H0.599831C0.445083 316 0.296678 315.939 0.187254 315.83C0.0778302 315.72 0.0163574 315.572 0.0163574 315.417C0.0163574 315.263 0.0778302 315.114 0.187254 315.005C0.296678 314.895 0.445083 314.834 0.599831 314.834H422.417C422.493 314.834 422.569 314.849 422.64 314.878C422.711 314.907 422.775 314.95 422.83 315.004C422.884 315.059 422.927 315.123 422.956 315.194C422.985 315.265 423 315.341 423 315.417Z" fill="#CCCCCC"/>
<path d="M153.638 145.456L110.242 138.518C109.104 138.153 108.058 137.547 107.177 136.741C106.295 135.934 105.599 134.947 105.135 133.846C104.671 132.745 104.451 131.557 104.49 130.363C104.529 129.169 104.826 127.998 105.361 126.929L107.329 122.995L106.564 81.6577C106.472 76.2807 107.798 70.9743 110.41 66.2723C113.021 61.5704 116.825 57.6386 121.439 54.8727L125.671 52.3435L127.81 46.915L147.53 47.3958L147.588 54.5154L154.65 65.7719L154.65 65.8185L154.207 127.086L152.26 133.409L155.203 140.763L153.638 145.456Z" fill="#E6E6E6"/>
<path d="M139.476 40.1642C149.372 40.1642 157.394 32.1457 157.394 22.2545C157.394 12.3632 149.372 4.34473 139.476 4.34473C129.58 4.34473 121.557 12.3632 121.557 22.2545C121.557 32.1457 129.58 40.1642 139.476 40.1642Z" fill="#FFB8B8"/>
<path d="M120.817 26.1593C120.283 23.9089 120.528 20.7421 120.83 18.4762C121.622 12.5358 124.923 6.88828 129.937 3.54309C130.888 2.82128 132.018 2.3725 133.205 2.24512C134.391 2.19562 135.677 2.83037 136.041 3.95993C136.34 3.21441 136.789 2.53803 137.359 1.97252C137.93 1.40702 138.61 0.964381 139.358 0.671947C140.862 0.0962713 142.479 -0.121435 144.081 0.0360834C147.186 0.291927 150.164 1.38331 152.699 3.1944C155.234 5.00549 157.231 7.46873 158.478 10.3227C158.956 11.4591 160.293 7.26154 160.9 8.33528C161.457 9.45138 162.429 10.3051 163.608 10.7139C164.796 11.0453 165.279 15.9383 165.746 14.7974C166.109 15.6406 166.253 16.5618 166.163 17.4754C166.074 18.3889 165.755 19.265 165.236 20.022C164.716 20.779 164.014 21.3924 163.193 21.8049C162.373 22.2175 161.462 22.4159 160.544 22.3816C159.335 22.3363 158.178 21.8917 156.983 21.7003C152.71 21.016 148.177 24.1131 147.264 28.3413C146.937 27.1185 146.414 25.9566 145.716 24.9004C145.362 24.3751 144.888 23.9418 144.332 23.6368C143.777 23.3317 143.156 23.1637 142.523 23.1465C141.307 23.192 140.238 23.9865 139.449 24.9123C138.661 25.8381 138.068 26.9182 137.274 27.839C134.942 30.5408 131.788 36.8417 128.465 36.3822C125.843 36.0195 121.547 29.2319 120.817 26.1593Z" fill="#2F2E41"/>
<path d="M247.79 105.143C247.915 104.326 247.747 103.492 247.316 102.787C246.884 102.083 246.217 101.554 245.433 101.294L197.179 85.2303C196.716 85.0757 196.226 85.0195 195.741 85.0653L183.646 86.2085L176.706 86.8665L163.9 88.0761C163.126 88.1501 162.4 88.4784 161.833 89.0097C161.267 89.5409 160.893 90.245 160.77 91.0116L154.267 131.609C154.144 132.401 154.295 133.211 154.695 133.906C155.095 134.6 155.72 135.138 156.466 135.43L205.224 154.241C205.453 154.33 205.69 154.394 205.933 154.432C206.286 154.489 206.646 154.492 207 154.44L238.505 149.772C239.249 149.665 239.937 149.321 240.469 148.791C241.001 148.262 241.348 147.575 241.459 146.832L247.79 105.143Z" fill="white"/>
<path d="M157.572 132.57L206.329 151.38C206.4 151.408 206.477 151.418 206.553 151.407L238.055 146.74C238.148 146.727 238.235 146.684 238.301 146.618C238.368 146.551 238.411 146.465 238.425 146.372L244.759 104.682C244.774 104.58 244.752 104.476 244.699 104.388C244.645 104.301 244.563 104.234 244.466 104.201L244.141 104.091L196.209 88.1406C196.187 88.1329 196.164 88.1274 196.141 88.1244C196.104 88.1175 196.066 88.1156 196.029 88.1185L166.529 90.9087L164.188 91.1282C164.092 91.1385 164.002 91.1798 163.931 91.246C163.861 91.3121 163.814 91.3995 163.798 91.4947L157.297 132.091C157.281 132.19 157.3 132.291 157.35 132.379C157.4 132.466 157.478 132.533 157.572 132.57Z" fill="#FF7E00"/>
<path d="M166.529 90.9087L196.029 88.1185C196.066 88.1156 196.104 88.1175 196.141 88.1244C196.164 88.1274 196.187 88.1329 196.209 88.1406L244.141 104.091L231.497 105.429L226.766 105.927L213.301 107.349C213.262 107.351 213.222 107.35 213.183 107.347C213.159 107.34 213.135 107.333 213.106 107.325L166.529 90.9087Z" fill="#2F2E41"/>
<path d="M156.465 135.433L205.223 154.243C205.452 154.332 205.691 154.394 205.934 154.429C206.287 154.488 206.647 154.492 207.002 154.443L238.503 149.776C239.247 149.668 239.935 149.323 240.468 148.793C241 148.263 241.348 147.576 241.459 146.833L247.789 105.143C247.882 104.528 247.812 103.9 247.584 103.322C247.552 103.245 247.52 103.168 247.482 103.095C247.231 102.567 246.849 102.112 246.372 101.773C246.085 101.567 245.768 101.406 245.433 101.295L245.376 101.274L197.181 85.2302C196.985 85.1674 196.783 85.1186 196.58 85.0841C196.301 85.0447 196.019 85.0392 195.739 85.0678L183.646 86.2071L176.707 86.8687L163.898 88.0775C163.374 88.1264 162.868 88.2935 162.418 88.5663C162.383 88.5832 162.35 88.6031 162.319 88.6258C162.297 88.6403 162.275 88.6564 162.255 88.6739C161.862 88.9419 161.528 89.2872 161.273 89.6886C161.018 90.0899 160.847 90.539 160.771 91.0085L154.265 131.609C154.142 132.401 154.293 133.212 154.693 133.907C155.093 134.602 155.718 135.14 156.465 135.433ZM161.634 91.15C161.713 90.6634 161.929 90.2093 162.257 89.8408C162.356 89.7223 162.467 89.6141 162.588 89.518C162.919 89.2507 163.31 89.0683 163.728 88.9868C163.81 88.9698 163.893 88.958 163.977 88.9515L185.544 86.9151L195.823 85.9374C195.893 85.9293 195.957 85.9305 196.021 85.9268C196.177 85.9236 196.333 85.9351 196.486 85.9613C196.627 85.9796 196.766 86.0127 196.9 86.0599L245.152 102.124C245.19 102.138 245.223 102.151 245.261 102.164C245.7 102.327 246.085 102.608 246.376 102.975C246.605 103.256 246.773 103.582 246.867 103.932C246.962 104.282 246.982 104.648 246.925 105.006L240.59 146.701C240.507 147.257 240.247 147.772 239.849 148.169C239.451 148.566 238.936 148.825 238.379 148.907L206.873 153.574C206.422 153.638 205.962 153.586 205.538 153.422L156.78 134.616C156.221 134.396 155.754 133.992 155.454 133.472C155.155 132.951 155.042 132.344 155.133 131.751L161.634 91.15Z" fill="#3F3D56"/>
<path d="M162.15 88.8955C162.176 88.8216 162.222 88.7562 162.282 88.7062C162.302 88.6902 162.323 88.6758 162.345 88.663C162.366 88.6551 162.386 88.6423 162.407 88.6344C162.505 88.5951 162.614 88.5932 162.713 88.6292L163.728 88.987L213.307 106.468L224.91 105.243L231.403 104.558L245.147 103.104L246.376 102.975L246.615 102.949C246.718 102.939 246.821 102.966 246.906 103.025C246.991 103.083 247.053 103.17 247.081 103.269C247.088 103.292 247.092 103.315 247.094 103.339C247.105 103.433 247.084 103.529 247.035 103.61C246.986 103.692 246.913 103.755 246.825 103.791C246.786 103.807 246.745 103.818 246.703 103.824L245.032 103.999L231.498 105.429L226.766 105.927L213.301 107.349C213.262 107.351 213.223 107.35 213.183 107.347C213.159 107.34 213.135 107.333 213.107 107.325L162.588 89.5182L162.417 89.4576C162.378 89.4447 162.341 89.4245 162.309 89.398C162.233 89.342 162.176 89.2631 162.148 89.1727C162.119 89.0824 162.12 88.9852 162.15 88.8955Z" fill="#3F3D56"/>
<path d="M206.067 154.557C205.953 154.539 205.85 154.476 205.782 154.383C205.714 154.29 205.685 154.173 205.703 154.059L212.821 106.847C212.838 106.732 212.9 106.629 212.994 106.56C213.087 106.491 213.204 106.462 213.319 106.479L213.323 106.48C213.437 106.498 213.54 106.561 213.608 106.654C213.676 106.747 213.704 106.864 213.687 106.978L206.569 154.19C206.552 154.305 206.49 154.408 206.396 154.477C206.303 154.546 206.186 154.575 206.071 154.558L206.067 154.557Z" fill="#3F3D56"/>
<path d="M224.109 151.562L219.375 152.061L224.912 105.241C224.912 105.241 231.235 104.097 231.404 104.556C231.508 104.83 224.154 151.262 224.109 151.562Z" fill="#3F3D56"/>
<path d="M162.418 89.457L162.291 110.809L200.107 125.211L213.688 106.978L162.418 89.457Z" fill="#3F3D56"/>
<path d="M246.377 102.976C246.061 102.579 245.635 102.283 245.153 102.125L196.903 86.061C196.767 86.0155 196.628 85.9816 196.487 85.9597C196.333 85.9333 196.177 85.9217 196.021 85.9249L196.099 85.4361L196.582 85.0866L208.04 76.7949L246.305 88.5163L246.371 101.774L246.377 102.976Z" fill="#3F3D56"/>
<path d="M164.346 123.733C164.4 123.738 164.453 123.749 164.505 123.766L179.31 128.626C179.495 128.687 179.649 128.819 179.737 128.993C179.825 129.167 179.84 129.369 179.779 129.554C179.719 129.739 179.587 129.893 179.413 129.981C179.238 130.069 179.037 130.084 178.851 130.023L164.047 125.163C163.875 125.107 163.73 124.989 163.639 124.833C163.549 124.676 163.519 124.492 163.556 124.315C163.593 124.138 163.694 123.98 163.84 123.873C163.985 123.766 164.165 123.716 164.346 123.733Z" fill="white"/>
<path d="M224.077 213.303C227.327 213.303 229.961 210.67 229.961 207.422C229.961 204.174 227.327 201.541 224.077 201.541C220.828 201.541 218.194 204.174 218.194 207.422C218.194 210.67 220.828 213.303 224.077 213.303Z" fill="#F2F2F2"/>
<path d="M74.0398 234.867C77.2894 234.867 79.9237 232.234 79.9237 228.986C79.9237 225.738 77.2894 223.104 74.0398 223.104C70.7903 223.104 68.156 225.738 68.156 228.986C68.156 232.234 70.7903 234.867 74.0398 234.867Z" fill="#F2F2F2"/>
<path d="M196.62 40.3031C199.869 40.3031 202.503 37.67 202.503 34.422C202.503 31.174 199.869 28.541 196.62 28.541C193.37 28.541 190.736 31.174 190.736 34.422C190.736 37.67 193.37 40.3031 196.62 40.3031Z" fill="#F2F2F2"/>
<path d="M206.273 132.382C205.511 132.713 204.685 132.873 203.854 132.851C203.022 132.829 202.206 132.624 201.463 132.252C200.719 131.881 200.066 131.35 199.55 130.699C199.033 130.048 198.666 129.291 198.474 128.483L178.365 126.452L184.999 118.313L203.078 121.49C204.458 121.257 205.876 121.538 207.062 122.281C208.249 123.023 209.122 124.174 209.516 125.517C209.91 126.86 209.797 128.3 209.2 129.566C208.602 130.831 207.561 131.833 206.273 132.382Z" fill="#FFB8B8"/>
<path d="M193.905 129.154L146.977 124.832L146.913 124.758L112.664 85.5335C110.41 82.082 109.561 77.8998 110.291 73.8432C111.022 69.7867 113.276 66.1627 116.593 63.7132C118.428 62.3614 120.528 61.4133 122.756 60.9314C124.984 60.4495 127.289 60.4447 129.519 60.9174C131.749 61.3901 133.854 62.3294 135.695 63.6737C137.535 65.0179 139.07 66.7366 140.198 68.7165L161.293 105.74L194.422 119.044L193.905 129.154Z" fill="#E6E6E6"/>
<path d="M311.691 53.7213C310.526 45.1772 309.064 36.0039 303.035 29.8361C301.122 27.879 298.832 26.3295 296.304 25.2808C293.775 24.2322 291.061 23.7062 288.323 23.7345C285.586 23.7628 282.883 24.3449 280.377 25.4456C277.871 26.5463 275.614 28.1429 273.741 30.1391C269.353 34.8188 267.415 41.3899 267.237 47.8017C267.06 54.2135 268.488 60.5541 270.073 66.7697C278.461 66.9371 286.786 65.2993 294.484 61.9672C296.409 61.132 298.303 60.1879 300.337 59.6705C302.371 59.1531 303.821 60.455 305.713 61.3629L306.751 59.3754C307.601 60.9567 310.234 60.488 311.188 58.9675C312.143 57.4471 311.934 55.4999 311.691 53.7213Z" fill="#2F2E41"/>
<path d="M278.444 101.411L244.183 102.143C243.657 101.234 242.877 100.497 241.94 100.023C241.003 99.5482 239.948 99.3562 238.903 99.47C237.859 99.5839 236.87 99.9988 236.057 100.664C235.244 101.33 234.642 102.217 234.324 103.218C234.007 104.219 233.987 105.291 234.268 106.303C234.548 107.315 235.117 108.223 235.905 108.918C236.693 109.613 237.666 110.064 238.705 110.216C239.745 110.368 240.806 110.215 241.761 109.776C246.305 110.034 281.855 115.077 283.976 111.827C286.129 108.528 297.619 96.886 297.619 96.886L288.787 84.3184L278.444 101.411Z" fill="#FFB8B8"/>
<path d="M286.793 62.1752C295.683 62.1752 302.89 54.9717 302.89 46.0856C302.89 37.1996 295.683 29.9961 286.793 29.9961C277.903 29.9961 270.696 37.1996 270.696 46.0856C270.696 54.9717 277.903 62.1752 286.793 62.1752Z" fill="#FFB8B8"/>
<path d="M312.575 77.0428C310.678 73.2692 309.757 68.6074 305.713 67.384C302.982 66.5579 291.936 67.796 289.447 69.1905C285.307 71.5101 289.059 75.8568 286.616 79.9244C283.961 84.3463 276.745 93.2203 274.09 97.6421C272.265 100.682 278.413 109.605 277.426 113.01C276.439 116.416 276.392 120.238 278.073 123.359C279.578 126.154 277.401 128.625 278.914 131.415C280.488 134.316 282.419 145.163 280.955 148.121L279.974 151.061C289.705 151.633 297.888 140.013 307.558 138.789C309.96 138.485 312.455 138.088 314.434 136.694C317.349 134.641 318.502 130.916 319.222 127.425C322.689 110.36 320.35 92.6262 312.575 77.0428Z" fill="#3F3D56"/>
<path d="M327.165 116.888C325.81 113.19 323.356 97.0214 323.356 97.0214L307.997 96.5713L315.506 115.083L295.015 143.754C295.015 143.754 295.053 143.817 295.122 143.929C294.045 143.757 292.941 143.913 291.954 144.378C290.967 144.843 290.143 145.595 289.591 146.535C289.038 147.476 288.783 148.561 288.858 149.649C288.932 150.737 289.334 151.777 290.01 152.633C290.686 153.489 291.605 154.121 292.646 154.447C293.688 154.773 294.803 154.776 295.847 154.458C296.89 154.139 297.813 153.513 298.495 152.662C299.177 151.81 299.585 150.773 299.667 149.685C299.743 149.729 299.831 149.744 299.917 149.73C300.003 149.715 300.081 149.671 300.137 149.605C302.417 146.745 328.521 120.586 327.165 116.888Z" fill="#FFB8B8"/>
<path d="M328.727 106.677C327.317 100.73 325.897 94.7502 323.52 89.1191C321.143 83.4879 317.741 78.1691 312.955 74.3648C311.425 73.1485 309.715 72.075 307.797 71.6969C305.879 71.3187 303.718 71.7419 302.371 73.158C300.215 75.4239 300.864 79.0611 301.654 82.0863C303.985 91.006 306.317 99.9258 308.648 108.846C315.379 108.132 322.111 107.419 328.843 106.706L328.727 106.677Z" fill="#3F3D56"/>
<path d="M306.518 48.3168C305.925 44.4246 305.305 40.4998 303.913 36.8348C302.52 33.1699 300.275 29.7372 297.055 27.661C291.956 24.374 285.355 25.0079 279.638 26.8987C275.218 28.361 270.902 30.5835 267.785 34.1565C264.667 37.7296 262.916 42.828 264.076 47.4999C270.173 46.0599 276.271 44.6199 282.369 43.1799L281.701 43.6514C283.704 44.6493 285.452 46.09 286.814 47.8641C288.176 49.6383 289.116 51.6992 289.562 53.8906C289.998 56.1085 289.935 58.3957 289.378 60.5865C288.822 62.7773 287.785 64.817 286.342 66.5582C290.501 65.0836 294.66 63.609 298.819 62.1345C301.386 61.2243 304.133 60.1756 305.655 57.8411C307.42 55.1344 307.01 51.547 306.518 48.3168Z" fill="#2F2E41"/>
</g>
<defs>
<clipPath id="clip0_5914_46195">
<rect width="423" height="316" fill="white"/>
</clipPath>
</defs>
</svg>
