<svg width="239" height="196" viewBox="0 0 239 196" fill="none" xmlns="http://www.w3.org/2000/svg">
<g clip-path="url(#clip0_890_24135)">
<path d="M210.281 11.9056H0.828947C0.74104 11.9037 0.657393 11.868 0.595911 11.8062C0.53443 11.7444 0.5 11.6613 0.5 11.5749C0.5 11.4884 0.53443 11.4054 0.595911 11.3436C0.657393 11.2817 0.74104 11.2461 0.828947 11.2441H210.281C210.369 11.2461 210.452 11.2817 210.514 11.3436C210.575 11.4054 210.61 11.4884 210.61 11.5749C210.61 11.6613 210.575 11.7444 210.514 11.8062C210.452 11.868 210.369 11.9037 210.281 11.9056Z" fill="#CACACA"/>
<path d="M8.23611 7.27612C10.2348 7.27612 11.855 5.6473 11.855 3.63806C11.855 1.62881 10.2348 0 8.23611 0C6.23744 0 4.61719 1.62881 4.61719 3.63806C4.61719 5.6473 6.23744 7.27612 8.23611 7.27612Z" fill="#3F3D56"/>
<path d="M20.7361 7.27612C22.7348 7.27612 24.355 5.6473 24.355 3.63806C24.355 1.62881 22.7348 0 20.7361 0C18.7374 0 17.1172 1.62881 17.1172 3.63806C17.1172 5.6473 18.7374 7.27612 20.7361 7.27612Z" fill="#3F3D56"/>
<path d="M33.2361 7.27612C35.2348 7.27612 36.855 5.6473 36.855 3.63806C36.855 1.62881 35.2348 0 33.2361 0C31.2374 0 29.6172 1.62881 29.6172 3.63806C29.6172 5.6473 31.2374 7.27612 33.2361 7.27612Z" fill="#3F3D56"/>
<path d="M202.79 0.902344H193.909C193.733 0.90578 193.566 0.976957 193.442 1.10059C193.319 1.22422 193.25 1.39045 193.25 1.56358C193.25 1.73672 193.319 1.90294 193.442 2.02658C193.566 2.15021 193.733 2.22139 193.909 2.22482H202.79C202.966 2.22139 203.133 2.15021 203.257 2.02658C203.38 1.90294 203.449 1.73672 203.449 1.56358C203.449 1.39045 203.38 1.22422 203.257 1.10059C203.133 0.976957 202.966 0.90578 202.79 0.902344Z" fill="#3F3D56"/>
<path d="M202.79 3.38281H193.909C193.733 3.38625 193.566 3.45743 193.442 3.58106C193.319 3.70469 193.25 3.87092 193.25 4.04406C193.25 4.21719 193.319 4.38342 193.442 4.50705C193.566 4.63068 193.733 4.70186 193.909 4.7053H202.79C202.966 4.70186 203.133 4.63068 203.257 4.50705C203.38 4.38342 203.449 4.21719 203.449 4.04406C203.449 3.87092 203.38 3.70469 203.257 3.58106C203.133 3.45743 202.966 3.38625 202.79 3.38281Z" fill="#3F3D56"/>
<path d="M202.79 5.86328H193.909C193.733 5.86672 193.566 5.93789 193.442 6.06153C193.319 6.18516 193.25 6.35139 193.25 6.52452C193.25 6.69765 193.319 6.86388 193.442 6.98751C193.566 7.11115 193.733 7.18232 193.909 7.18576H202.79C202.966 7.18232 203.133 7.11115 203.257 6.98751C203.38 6.86388 203.449 6.69765 203.449 6.52452C203.449 6.35139 203.38 6.18516 203.257 6.06153C203.133 5.93789 202.966 5.86672 202.79 5.86328Z" fill="#3F3D56"/>
<path d="M199.471 23.0742H8.69577C7.63941 23.0758 6.62677 23.4891 5.87981 24.2237C5.13285 24.9582 4.71251 25.954 4.71094 26.9928V27.6247C4.71251 28.6635 5.13285 29.6593 5.87981 30.3939C6.62677 31.1284 7.63941 31.5417 8.69577 31.5433H199.471C200.527 31.5417 201.54 31.1284 202.287 30.3939C203.034 29.6593 203.454 28.6635 203.456 27.6247V26.9928C203.454 25.954 203.034 24.9582 202.287 24.2237C201.54 23.4891 200.527 23.0758 199.471 23.0742Z" fill="#F0F0F0"/>
<path d="M31.7221 28.8716H13.5625C13.1562 28.871 12.7667 28.7119 12.4796 28.4291C12.1925 28.1464 12.0313 27.7632 12.0312 27.3636C12.0313 26.9641 12.1925 26.5808 12.4796 26.2981C12.7667 26.0154 13.1562 25.8562 13.5625 25.8556H31.7221C33.6997 25.8285 33.7195 28.899 31.7221 28.8716Z" fill="white"/>
<path d="M86.0424 28.8716H67.8828C67.4765 28.871 67.087 28.7119 66.7999 28.4291C66.5128 28.1464 66.3516 27.7632 66.3516 27.3636C66.3516 26.9641 66.5128 26.5808 66.7999 26.2981C67.087 26.0154 67.4765 25.8562 67.8828 25.8556H86.0424C88.02 25.8285 88.0398 28.899 86.0424 28.8716Z" fill="white"/>
<path d="M140.371 28.8716H122.211C121.805 28.871 121.415 28.7119 121.128 28.4291C120.841 28.1464 120.68 27.7632 120.68 27.3636C120.68 26.9641 120.841 26.5808 121.128 26.2981C121.415 26.0154 121.805 25.8562 122.211 25.8556H140.371C142.348 25.8285 142.368 28.899 140.371 28.8716Z" fill="white"/>
<path d="M191.873 29.0357H173.713C173.306 29.0357 172.916 28.8768 172.629 28.594C172.341 28.3112 172.18 27.9276 172.18 27.5277C172.18 27.1277 172.341 26.7442 172.629 26.4614C172.916 26.1786 173.306 26.0197 173.713 26.0197H191.873C193.85 25.9926 193.87 29.063 191.873 29.0357Z" fill="#FF7E00"/>
<path d="M163.545 23.0742H162.883V31.5433H163.545V23.0742Z" fill="white"/>
<path d="M94.9917 148.42H17.1323C16.4386 148.42 15.7735 148.148 15.2829 147.666C14.7924 147.183 14.5164 146.529 14.5156 145.847V134.634C14.5164 133.952 14.7924 133.297 15.2829 132.815C15.7735 132.333 16.4386 132.061 17.1323 132.061H94.9917C95.6854 132.061 96.3505 132.333 96.841 132.815C97.3316 133.297 97.6075 133.952 97.6083 134.634V145.847C97.6075 146.529 97.3316 147.183 96.841 147.666C96.3505 148.148 95.6854 148.42 94.9917 148.42Z" fill="#F0F0F0"/>
<path d="M87.4269 146.684H18.8979C18.2042 146.683 17.5391 146.412 17.0486 145.93C16.558 145.447 16.2821 144.793 16.2812 144.111V136.37C16.2821 135.688 16.558 135.034 17.0486 134.551C17.5391 134.069 18.2042 133.798 18.8979 133.797H93.2269C93.9206 133.798 94.5857 134.069 95.0763 134.551C95.5668 135.034 95.8428 135.688 95.8436 136.37V138.407C95.841 140.602 94.9535 142.705 93.3756 144.257C91.7977 145.809 89.6584 146.682 87.4269 146.684Z" fill="white"/>
<path d="M63.7887 139.442H32.4952C32.3162 139.442 32.1445 139.373 32.018 139.248C31.8914 139.124 31.8203 138.955 31.8203 138.779C31.8203 138.603 31.8914 138.434 32.018 138.31C32.1445 138.185 32.3162 138.115 32.4952 138.115H63.7887C63.9677 138.115 64.1393 138.185 64.2659 138.31C64.3924 138.434 64.4635 138.603 64.4635 138.779C64.4635 138.955 64.3924 139.124 64.2659 139.248C64.1393 139.373 63.9677 139.442 63.7887 139.442Z" fill="#E6E6E6"/>
<path d="M79.6315 142.157H32.4967C32.4079 142.158 32.32 142.14 32.2379 142.107C32.1559 142.074 32.0813 142.025 32.0185 141.963C31.9557 141.902 31.9058 141.829 31.8718 141.748C31.8378 141.667 31.8203 141.581 31.8203 141.494C31.8203 141.406 31.8378 141.32 31.8718 141.239C31.9058 141.159 31.9557 141.086 32.0185 141.024C32.0813 140.962 32.1559 140.913 32.2379 140.88C32.32 140.847 32.4079 140.83 32.4967 140.83H79.6315C79.8102 140.83 79.9815 140.901 80.1077 141.025C80.234 141.149 80.3049 141.318 80.3049 141.494C80.3049 141.669 80.234 141.838 80.1077 141.962C79.9815 142.087 79.8102 142.157 79.6315 142.157Z" fill="#E6E6E6"/>
<path d="M99.9636 119.229H11.1875C10.4791 119.229 9.8 118.951 9.2991 118.459C8.79819 117.966 8.51643 117.298 8.51562 116.602V49.8696C8.51644 49.173 8.7982 48.5051 9.29911 48.0126C9.80002 47.52 10.4792 47.243 11.1875 47.2422H99.9636C100.672 47.243 101.351 47.52 101.852 48.0126C102.353 48.5051 102.635 49.173 102.636 49.8696V116.602C102.635 117.298 102.353 117.966 101.852 118.459C101.351 118.951 100.672 119.229 99.9636 119.229Z" fill="white"/>
<path d="M99.9666 119.557H11.1907C10.3945 119.556 9.63114 119.244 9.06814 118.691C8.50514 118.137 8.18843 117.386 8.1875 116.603V49.871C8.18843 49.0881 8.50514 48.3375 9.06815 47.7839C9.63116 47.2302 10.3945 46.9188 11.1907 46.918H99.9666C100.763 46.9188 101.526 47.2302 102.089 47.7839C102.652 48.3375 102.969 49.0881 102.97 49.871V116.603C102.969 117.386 102.652 118.137 102.089 118.691C101.526 119.244 100.763 119.556 99.9666 119.557ZM11.1907 47.5694C10.5701 47.5701 9.97518 47.8128 9.53637 48.2443C9.09756 48.6758 8.85071 49.2608 8.84998 49.8711V116.603C8.85068 117.214 9.09751 117.799 9.53632 118.23C9.97514 118.662 10.5701 118.904 11.1907 118.905H99.9666C100.587 118.904 101.182 118.662 101.621 118.23C102.06 117.799 102.307 117.214 102.307 116.603V49.871C102.307 49.2608 102.06 48.6758 101.621 48.2443C101.182 47.8128 100.587 47.5701 99.9666 47.5694L11.1907 47.5694Z" fill="#F0F0F0"/>
<path d="M8.71875 106.527V116.604C8.71973 117.247 8.97993 117.863 9.44234 118.318C9.90475 118.772 10.5316 119.028 11.1856 119.029H99.9617C100.616 119.028 101.243 118.772 101.705 118.318C102.167 117.863 102.428 117.247 102.429 116.604V106.527H8.71875Z" fill="#F0F0F0"/>
<path d="M9.56027 47.6682L9.20312 48.2168L102.255 106.801L102.612 106.252L9.56027 47.6682Z" fill="#F0F0F0"/>
<path d="M102.513 47.6678L9.46094 106.252L9.81808 106.801L102.87 48.2164L102.513 47.6678Z" fill="#F0F0F0"/>
<path d="M181.151 191.463L177.046 191.463L175.094 175.896L181.151 175.897L181.151 191.463Z" fill="#A0616A"/>
<path d="M181.038 190.143L176.659 188.394L176.53 188.342L174.112 190.143C172.785 190.143 171.509 190.647 170.551 191.549C169.592 192.452 169.025 193.683 168.968 194.987C168.961 195.058 168.961 195.133 168.961 195.208V195.374H182.194V190.143H181.038Z" fill="#2F2E41"/>
<path d="M171.538 187.706L167.666 189.045L160.57 174.998L166.284 173.021L171.538 187.706Z" fill="#A0616A"/>
<path d="M170.989 186.498L166.268 186.278L166.129 186.271L164.456 188.759C163.204 189.192 162.171 190.084 161.571 191.248C160.972 192.412 160.852 193.759 161.238 195.007C161.256 195.077 161.281 195.148 161.307 195.218L161.363 195.375L173.846 191.056L172.08 186.121L170.989 186.498Z" fill="#2F2E41"/>
<path d="M182.601 124.342C186.356 124.198 181.705 153.622 181.705 153.622C181.705 153.622 183.065 179.454 182.777 180.81C182.488 182.166 182.74 185.822 182.74 185.822C182.005 184.505 174.416 185.499 174.416 185.499L173.383 159.318L168.112 138.341L160.804 152.402L167.808 173.985C167.808 173.985 170.645 176.566 170.343 177.586C170.042 178.606 162.612 180.907 161.246 180.959C159.881 181.011 160.498 179.306 160.431 177.628C160.365 175.95 153.941 160.395 151.681 155.103C149.421 149.81 151.178 142.348 152.331 136.925C153.485 131.503 159.553 121.326 159.553 121.326C167.086 112.971 178.846 124.485 182.601 124.342Z" fill="#2F2E41"/>
<path d="M136.841 100.564C137.047 100.95 137.336 101.288 137.689 101.552C138.041 101.817 138.449 102.002 138.882 102.095C139.315 102.188 139.764 102.186 140.197 102.09C140.629 101.995 141.035 101.806 141.386 101.539L150.415 107.332L150.388 101.823L141.818 97.1669C141.323 96.6172 140.64 96.2652 139.898 96.1777C139.157 96.0901 138.409 96.273 137.795 96.6917C137.182 97.1104 136.746 97.7358 136.57 98.4495C136.394 99.1631 136.491 99.9154 136.841 100.564Z" fill="#A0616A"/>
<path d="M180.645 129.059C171.334 129.059 166.203 127.226 163.478 125.589C160.146 123.588 159.576 121.478 159.553 121.389L159.547 121.363L159.871 117.35L160.013 117.038C160.667 115.599 160.753 113.973 160.256 112.475L160.246 112.445L160.249 112.412L162.426 84.6454L170.13 82.1636L172.372 79.949L182.351 79.8066L183.742 82.5787L191.609 85.4912L187.744 108.116L185.891 111.256L186.637 114.677L186.632 114.708L184.201 128.975L184.067 128.981C182.868 129.034 181.728 129.06 180.645 129.059Z" fill="#3F3D56"/>
<path d="M156.557 111.736L152.904 109.607L152.675 109.282C152.21 108.624 151.595 108.082 150.879 107.7C150.162 107.318 149.365 107.107 148.55 107.083L148.508 107.082L143.477 104.173L145.562 98.1659L153.449 100.457L158.947 87.0224C159.249 86.2845 159.754 85.6435 160.404 85.1706C161.054 84.6977 161.825 84.4115 162.631 84.3437C163.437 84.276 164.246 84.4294 164.969 84.7869C165.691 85.1445 166.299 85.692 166.723 86.3688C167.159 87.0762 167.384 87.889 167.375 88.7158V97.5064L167.342 97.55L156.557 111.736Z" fill="#3F3D56"/>
<path d="M180.981 123.892C181.059 123.463 181.232 123.055 181.487 122.699C181.743 122.342 182.075 122.045 182.46 121.828C182.844 121.612 183.273 121.481 183.715 121.444C184.157 121.408 184.602 121.468 185.018 121.619L191.86 113.426L193.517 118.688L186.765 125.662C186.461 126.332 185.917 126.87 185.237 127.172C184.556 127.475 183.787 127.521 183.074 127.303C182.361 127.085 181.754 126.617 181.368 125.989C180.982 125.36 180.845 124.614 180.981 123.892Z" fill="#A0616A"/>
<path d="M191.212 122.857L186.669 118.388L189.561 111.459L193.752 105.83C189.286 103.692 185.933 98.6267 183.504 94.4335L183.477 94.3865L184.081 89.7273C184.223 88.6375 184.667 87.6071 185.365 86.7491C185.971 86.0029 186.751 85.4104 187.638 85.0211C188.525 84.6319 189.494 84.4572 190.464 84.5117C191.434 84.5662 192.377 84.8483 193.213 85.3344C194.049 85.8205 194.755 86.4964 195.272 87.3057L203.417 105.113L203.326 105.248L196.774 116.231L194.985 117.371L191.212 122.857Z" fill="#3F3D56"/>
<path d="M184.531 70.4659C184.231 72.613 183.077 74.5554 181.322 75.8663C179.567 77.1772 177.355 77.7493 175.171 77.457C172.987 77.1648 171.011 76.032 169.676 74.3076C168.341 72.5831 167.757 70.4081 168.051 68.2603L168.067 68.1443C168.412 66.0252 169.59 64.1242 171.347 62.8514C173.104 61.5786 175.299 61.036 177.459 61.3407C179.619 61.6453 181.571 62.7727 182.894 64.4798C184.216 66.1868 184.803 68.3367 184.528 70.4656L184.531 70.4659Z" fill="#A0616A"/>
<path d="M182.41 74.6783C182.838 73.8253 183.276 72.9095 183.156 71.966C183.036 71.0226 182.095 70.1208 181.171 70.4012C180.619 70.5688 180.201 71.1053 179.624 71.1328C178.829 71.1705 178.374 70.2763 178.126 69.5327L177.119 66.5045C176.152 67.2458 175.03 67.768 173.834 68.0338C172.638 68.2997 171.397 68.3025 170.199 68.0422C169.264 67.832 168.319 67.422 167.77 66.648C167.222 65.8741 167.225 64.6735 167.977 64.0883C168.346 63.8013 168.838 63.6923 169.19 63.3861C169.409 63.1961 169.56 62.942 169.62 62.6612C169.68 62.3805 169.647 62.088 169.526 61.8272C169.404 61.5664 169.2 61.3511 168.944 61.213C168.688 61.075 168.394 61.0216 168.105 61.0608L170.641 60.7491L169.886 59.4051C170.173 59.5973 170.498 59.7285 170.84 59.7901C171.181 59.8518 171.532 59.8426 171.87 59.7631C172.553 59.6423 173.195 59.366 173.863 59.1817C175.481 58.7754 177.19 58.8996 178.73 59.5354C180.269 60.1712 181.556 61.2839 182.394 62.7044C183.018 62.4995 183.691 62.4859 184.323 62.6654C184.955 62.8449 185.517 63.2091 185.934 63.7096C186.613 64.557 186.798 65.6879 186.824 66.7664C186.873 68.893 186.402 71.0001 185.449 72.9098C185.176 73.5164 184.783 74.0639 184.294 74.5208C184.048 74.7473 183.754 74.9181 183.434 75.0212C183.113 75.1243 182.774 75.1572 182.439 75.1175" fill="#2F2E41"/>
<path d="M47.6601 66.2645C47.7958 68.1691 48.3664 70.0191 49.3294 71.6769C51.3591 75.1821 54.8396 77.7199 58.5883 79.2284C63.2717 81.113 68.4924 81.171 73.4627 80.7508C78.0791 80.3605 82.6486 79.4558 87.282 79.2693C90.8652 79.1566 94.4521 79.2407 98.0258 79.5213C104.959 80.0053 111.864 80.9032 118.724 81.9917C120.582 82.2829 122.436 82.5957 124.286 82.9303C124.461 82.9454 124.634 82.977 124.803 83.0246C124.836 83.0382 124.89 83.0276 124.921 83.0466C124.977 83.0812 124.695 82.959 124.866 83.0978C125.104 83.3433 125.316 83.6119 125.499 83.8993L128.033 87.1056C128.759 88.0251 129.434 89.1422 130.373 89.867C131.035 90.37 131.834 90.6689 132.668 90.7261C133.503 90.7833 134.336 90.5962 135.063 90.1884C135.822 89.7167 136.427 89.0405 136.807 88.2402C137.39 87.1891 138.085 86.2022 138.881 85.2963C141.895 81.8384 146.084 79.7116 149.588 76.8021C151.285 75.4505 152.734 73.8222 153.871 71.9883C154.84 70.3289 155.443 68.4869 155.64 66.5828C156.059 62.716 154.853 58.7725 152.823 55.4829C150.616 51.9488 147.445 49.0943 143.67 47.2439C139.429 45.1194 134.737 44.0846 130.033 43.5689C125.039 43.0214 119.987 43.0231 114.969 43.0784C109.337 43.14 103.715 43.3836 98.1038 43.809C92.4846 44.2367 86.8876 44.8447 81.3128 45.6329C75.9634 46.3892 70.5487 47.1775 65.3125 48.5157C60.6868 49.6979 56.074 51.5457 52.6198 54.8938C49.5485 57.8708 47.4124 61.9445 47.6601 66.2645Z" fill="#FF7E00"/>
<path d="M73.5159 67.495C73.2872 67.4848 73.0632 67.4283 72.8578 67.3288C72.6524 67.2294 72.4702 67.0892 72.3227 66.9171C72.1751 66.745 72.0654 66.5447 72.0004 66.3289C71.9353 66.113 71.9165 65.8863 71.9449 65.6629L72.0638 64.7428C72.0865 64.5663 72.0653 64.387 72.0019 64.2204C71.9386 64.0537 71.8351 63.9047 71.7002 63.7861L70.9974 63.1685C70.7672 62.9663 70.5992 62.7049 70.5122 62.4137C70.4253 62.1225 70.423 61.8131 70.5056 61.5207C70.5881 61.2283 70.7522 60.9644 70.9793 60.7589C71.2064 60.5534 71.4875 60.4145 71.7907 60.358L72.7173 60.1849C72.8949 60.1517 73.0617 60.0766 73.2032 59.966C73.3448 59.8554 73.4568 59.7126 73.5298 59.55L73.9101 58.7007C74.0347 58.423 74.2357 58.1852 74.4905 58.014C74.7453 57.8428 75.0437 57.7451 75.352 57.732C75.6602 57.7189 75.9661 57.7908 76.235 57.9396C76.5039 58.0885 76.7251 58.3083 76.8736 58.5743L77.327 59.3874C77.4139 59.5435 77.5382 59.6764 77.6891 59.7747C77.84 59.8731 78.0129 59.9338 78.193 59.9517L79.131 60.0449C79.4381 60.0755 79.7303 60.1899 79.9747 60.3753C80.2191 60.5606 80.4058 60.8095 80.5138 61.0938C80.6218 61.3781 80.6468 61.6865 80.5859 61.984C80.525 62.2815 80.3806 62.5563 80.1691 62.7774L79.5231 63.4528C79.3991 63.5822 79.309 63.7393 79.2606 63.9107C79.2122 64.082 79.207 64.2624 79.2453 64.4361L79.4447 65.3431C79.5099 65.6396 79.4895 65.9482 79.3857 66.2339C79.2819 66.5197 79.0989 66.7711 78.8574 66.96C78.6159 67.1488 78.3255 67.2674 78.019 67.3024C77.7125 67.3374 77.4022 67.2873 77.1231 67.158L76.2701 66.7627C76.1065 66.6865 75.9266 66.6507 75.7458 66.6583C75.565 66.666 75.3888 66.7168 75.2326 66.8066L74.4175 67.2733C74.1446 67.4303 73.8318 67.5072 73.5159 67.495Z" fill="white"/>
<path d="M86.7987 67.1164C86.378 67.0973 85.98 66.9226 85.6847 66.6273C85.5062 66.4414 85.3731 66.218 85.2954 65.974C85.2177 65.7301 85.1974 65.4719 85.2362 65.2192L85.3453 64.3749C85.3685 64.1951 85.3469 64.0125 85.2824 63.8427C85.2179 63.673 85.1124 63.5212 84.975 63.4004L84.323 62.8275C84.1307 62.6661 83.9775 62.4646 83.8744 62.2376C83.7713 62.0106 83.721 61.7639 83.7271 61.5153C83.7413 61.1471 83.8823 60.7947 84.1269 60.5156C84.3715 60.2365 84.7053 60.0475 85.0735 59.9794L85.9893 59.8083C86.1704 59.7745 86.3404 59.6979 86.4847 59.585C86.629 59.4722 86.7431 59.3266 86.8174 59.1607L87.1587 58.3985C87.2807 58.1093 87.4815 57.8587 87.7391 57.6744C87.9966 57.4902 88.3008 57.3793 88.6182 57.3542C88.9293 57.3368 89.2391 57.4067 89.5114 57.5557C89.7837 57.7047 90.0074 57.9266 90.1564 58.1957L90.6045 58.9993C90.6932 59.1584 90.8199 59.2938 90.9738 59.394C91.1276 59.4942 91.3038 59.556 91.4874 59.5743L92.3568 59.6607C92.6089 59.68 92.8535 59.7545 93.0727 59.8787C93.2919 60.0029 93.4801 60.1736 93.6237 60.3784C93.8319 60.6846 93.9283 61.0511 93.8971 61.4181C93.8659 61.7851 93.709 62.1309 93.4519 62.3987L92.8134 63.0663C92.6873 63.1982 92.5956 63.3583 92.5463 63.5328C92.497 63.7073 92.4916 63.8909 92.5305 64.0679L92.7145 64.9053C92.7735 65.147 92.7772 65.3986 92.7253 65.6419C92.6734 65.8851 92.5672 66.114 92.4144 66.3121C92.1836 66.603 91.8589 66.8078 91.4937 66.8928C91.1286 66.9777 90.7448 66.9377 90.4059 66.7794L89.5617 66.3882C89.3952 66.311 89.2121 66.2748 89.0282 66.2827C88.8442 66.2906 88.665 66.3423 88.5059 66.4334L87.7003 66.8947C87.4275 67.0517 87.1146 67.1286 86.7987 67.1164Z" fill="white"/>
<path d="M100.117 67.0614C99.8888 67.0512 99.6647 66.9947 99.4594 66.8952C99.254 66.7958 99.0718 66.6556 98.9242 66.4835C98.7767 66.3114 98.6669 66.1111 98.6019 65.8953C98.5369 65.6794 98.518 65.4527 98.5465 65.2293L98.6654 64.3092C98.6881 64.1327 98.6668 63.9534 98.6035 63.7868C98.5402 63.6201 98.4366 63.4711 98.3018 63.3525L97.5989 62.7349C97.3688 62.5327 97.2007 62.2713 97.1138 61.9801C97.0269 61.6889 97.0246 61.3796 97.1071 61.0871C97.1897 60.7947 97.3538 60.5308 97.5809 60.3253C97.808 60.1198 98.0891 59.9809 98.3923 59.9244L99.3188 59.7513C99.4964 59.7181 99.6632 59.643 99.8048 59.5324C99.9463 59.4218 100.058 59.2791 100.131 59.1164L100.512 58.2671C100.636 57.9894 100.837 57.7516 101.092 57.5804C101.347 57.4092 101.645 57.3115 101.954 57.2984C102.262 57.2853 102.568 57.3572 102.837 57.506C103.105 57.6549 103.327 57.8747 103.475 58.1407L103.929 58.9538C104.016 59.1099 104.14 59.2428 104.291 59.3411C104.442 59.4395 104.614 59.5002 104.795 59.5181L105.733 59.6113C106.04 59.6419 106.332 59.7563 106.576 59.9416C106.821 60.127 107.007 60.3759 107.115 60.6602C107.223 60.9445 107.248 61.2529 107.187 61.5504C107.127 61.8479 106.982 62.1227 106.771 62.3437L106.125 63.0192C106.001 63.1486 105.911 63.3057 105.862 63.4771C105.814 63.6484 105.809 63.8287 105.847 64.0025L106.046 64.9095C106.111 65.206 106.091 65.5146 105.987 65.8003C105.883 66.0861 105.7 66.3375 105.459 66.5263C105.217 66.7152 104.927 66.8338 104.621 66.8688C104.314 66.9037 104.004 66.8537 103.725 66.7244L102.872 66.3291C102.708 66.2529 102.528 66.2171 102.347 66.2247C102.167 66.2324 101.99 66.2832 101.834 66.3729L101.019 66.8397C100.746 66.9967 100.433 67.0736 100.117 67.0614Z" fill="white"/>
<path opacity="0.2" d="M113.063 66.7157C112.834 66.7055 112.61 66.649 112.405 66.5495C112.199 66.4501 112.017 66.3099 111.87 66.1378C111.722 65.9657 111.612 65.7654 111.547 65.5496C111.482 65.3337 111.463 65.107 111.492 64.8836L111.611 63.9635C111.633 63.787 111.612 63.6077 111.549 63.4411C111.485 63.2744 111.382 63.1254 111.247 63.0068L110.544 62.3892C110.314 62.187 110.146 61.9256 110.059 61.6344C109.972 61.3432 109.97 61.0339 110.052 60.7414C110.135 60.449 110.299 60.1851 110.526 59.9796C110.753 59.7741 111.034 59.6352 111.338 59.5787L112.264 59.4056C112.442 59.3725 112.609 59.2973 112.75 59.1867C112.892 59.0761 113.004 58.9333 113.077 58.7707L113.457 57.9214C113.582 57.6437 113.783 57.4059 114.037 57.2347C114.292 57.0635 114.591 56.9658 114.899 56.9527C115.207 56.9396 115.513 57.0115 115.782 57.1603C116.051 57.3092 116.272 57.529 116.42 57.795L116.874 58.6081C116.961 58.7642 117.085 58.8971 117.236 58.9954C117.387 59.0938 117.56 59.1545 117.74 59.1724L118.678 59.2656C118.985 59.2962 119.277 59.4106 119.522 59.596C119.766 59.7813 119.953 60.0302 120.061 60.3145C120.169 60.5988 120.194 60.9072 120.133 61.2047C120.072 61.5022 119.927 61.777 119.716 61.9981L119.07 62.6735C118.946 62.8029 118.856 62.96 118.807 63.1314C118.759 63.3027 118.754 63.4831 118.792 63.6568L118.992 64.5638C119.057 64.8603 119.036 65.1689 118.933 65.4546C118.829 65.7404 118.646 65.9918 118.404 66.1807C118.163 66.3695 117.872 66.4881 117.566 66.5231C117.259 66.5581 116.949 66.508 116.67 66.3787L115.817 65.9834C115.653 65.9072 115.473 65.8714 115.293 65.879C115.112 65.8867 114.936 65.9376 114.779 66.0273L113.964 66.494C113.692 66.651 113.379 66.7279 113.063 66.7157Z" fill="black"/>
<path opacity="0.2" d="M126.016 66.37C125.787 66.3598 125.563 66.3033 125.358 66.2038C125.152 66.1044 124.97 65.9642 124.823 65.7921C124.675 65.62 124.565 65.4197 124.5 65.2039C124.435 64.988 124.416 64.7613 124.445 64.5379L124.564 63.6178C124.587 63.4413 124.565 63.262 124.502 63.0954C124.439 62.9287 124.335 62.7797 124.2 62.6611L123.497 62.0435C123.267 61.8413 123.099 61.5799 123.012 61.2887C122.925 60.9975 122.923 60.6881 123.006 60.3957C123.088 60.1033 123.252 59.8394 123.479 59.6339C123.706 59.4284 123.987 59.2895 124.291 59.2329L125.217 59.0599C125.395 59.0267 125.562 58.9516 125.703 58.841C125.845 58.7304 125.957 58.5876 126.03 58.425L126.41 57.5757C126.535 57.298 126.736 57.0602 126.99 56.889C127.245 56.7178 127.544 56.6201 127.852 56.607C128.16 56.5939 128.466 56.6658 128.735 56.8146C129.004 56.9635 129.225 57.1833 129.374 57.4493L129.827 58.2624C129.914 58.4185 130.038 58.5514 130.189 58.6497C130.34 58.7481 130.513 58.8088 130.693 58.8267L131.631 58.9199C131.938 58.9505 132.23 59.0649 132.475 59.2503C132.719 59.4356 132.906 59.6845 133.014 59.9688C133.122 60.2531 133.147 60.5615 133.086 60.859C133.025 61.1565 132.881 61.4313 132.669 61.6524L132.023 62.3278C131.899 62.4572 131.809 62.6144 131.761 62.7857C131.712 62.957 131.707 63.1374 131.745 63.3111L131.945 64.2181C132.01 64.5146 131.989 64.8232 131.886 65.109C131.782 65.3947 131.599 65.6462 131.357 65.835C131.116 66.0238 130.825 66.1424 130.519 66.1774C130.213 66.2124 129.902 66.1623 129.623 66.033L128.77 65.6377C128.607 65.5615 128.427 65.5257 128.246 65.5333C128.065 65.541 127.889 65.5919 127.733 65.6816L126.917 66.1483C126.645 66.3053 126.332 66.3822 126.016 66.37Z" fill="black"/>
<path d="M208.535 175.039L208.914 166.662C212.864 164.585 217.27 163.489 221.748 163.467C215.584 168.422 216.355 177.975 212.176 184.639C210.856 186.708 209.08 188.458 206.979 189.76C204.878 191.062 202.506 191.882 200.039 192.16L194.881 195.266C194.173 191.386 194.329 187.401 195.338 183.586C196.348 179.771 198.186 176.216 200.726 173.167C202.169 171.47 203.823 169.958 205.65 168.668C206.885 171.871 208.535 175.039 208.535 175.039Z" fill="#F2F2F2"/>
<path d="M238.102 196H99.8475C99.7429 196 99.6426 195.959 99.5686 195.887C99.4947 195.814 99.4531 195.715 99.4531 195.612C99.4531 195.51 99.4947 195.411 99.5686 195.338C99.6426 195.265 99.7429 195.225 99.8475 195.225H238.102C238.206 195.225 238.307 195.265 238.381 195.338C238.455 195.411 238.496 195.51 238.496 195.612C238.496 195.715 238.455 195.814 238.381 195.887C238.307 195.959 238.206 196 238.102 196Z" fill="#CACACA"/>
</g>
<defs>
<clipPath id="clip0_890_24135">
<rect width="238" height="196" fill="white" transform="translate(0.5)"/>
</clipPath>
</defs>
</svg>
