<svg width="389" height="250" viewBox="0 0 389 250" fill="none" xmlns="http://www.w3.org/2000/svg">
<g clip-path="url(#clip0_812_26930)">
<path d="M108.517 217.984L86.6141 220.343L76.1386 213.266L70.0742 220.343L72.9851 235.276L76.3182 247.07L96.5291 236.9L112.803 235.44L108.517 217.984Z" fill="#A0616A"/>
<path d="M219.459 192.979L166.605 192.036L102.324 218.928L110.895 237.327L168.986 221.287L258.98 246.763L246.6 186.374L219.459 192.979Z" fill="#2F2E41"/>
<path d="M74.4906 219.704L84.9956 218.894L71.6337 190.925C71.6337 190.925 65.4436 188.759 64.4913 195.504C63.539 202.248 71.6617 247.914 74.0425 247.914C76.4233 247.914 84.4115 243.296 84.4115 243.296L72.586 221.119L74.4906 219.704L74.4906 219.704L74.4906 219.704Z" fill="#2F2E41"/>
<path d="M337.976 212.046C336.918 212.159 335.765 212.328 334.538 212.575C329.335 213.625 329.227 217.125 329.273 217.928L329.238 217.906C328.714 218.737 328.387 219.579 328.189 220.373L327.951 209.645C328.105 209.327 328.245 208.966 328.362 208.596C328.751 209.784 329.389 210.907 329.94 210.833C330.655 210.736 330.967 208.65 330.834 207.167C331.744 208.328 333.275 209.57 333.853 209.187C334.315 208.881 334.041 207.621 333.537 206.476C334.587 207.103 335.75 207.515 336.111 207.117C336.603 206.574 335.423 204.72 334.335 203.686C335.792 203.82 337.645 203.59 337.766 202.933C337.866 202.392 336.763 201.709 335.583 201.27C336.769 200.96 337.877 200.42 337.841 199.886C337.797 199.252 336.151 198.827 334.731 198.763C335.802 197.932 336.786 196.785 336.485 196.266C336.208 195.789 334.922 195.973 333.734 196.394C334.437 195.398 334.931 194.277 334.555 193.893C334.086 193.415 332.422 194.24 331.287 195.152C331.508 193.731 331.397 191.937 330.753 191.775C330.215 191.639 329.452 192.682 328.929 193.819C328.698 192.626 328.23 191.494 327.69 191.494C326.921 191.494 326.297 193.792 326.297 195.289C326.297 195.374 326.299 195.453 326.303 195.53C326.226 195.441 326.137 195.348 326.037 195.251C324.952 194.208 322.854 193.05 322.318 193.597C321.942 193.981 322.436 195.102 323.138 196.098C321.951 195.678 320.664 195.493 320.387 195.97C320.016 196.611 321.605 198.212 322.896 198.988C322.819 198.979 322.737 198.971 322.65 198.965C321.143 198.863 318.786 199.323 318.734 200.084C318.697 200.617 319.805 201.157 320.991 201.467C319.811 201.906 318.708 202.589 318.808 203.131C318.929 203.788 320.782 204.018 322.239 203.883C321.151 204.918 319.971 206.771 320.463 207.314C320.824 207.712 321.987 207.3 323.037 206.673C322.533 207.819 322.259 209.078 322.721 209.384C323.331 209.789 325.004 208.381 325.886 207.17C325.797 208.652 326.154 210.687 326.864 210.767C327.161 210.801 327.476 210.487 327.76 210.004L326.955 221.535C326.768 222.878 327.97 223.755 328.077 224.308L328.251 232.116C328.055 231.56 327.791 230.991 327.436 230.426L327.401 230.448C327.446 229.646 327.338 226.145 322.136 225.096C320.909 224.848 319.755 224.679 318.698 224.566C317.45 224.433 316.963 226.126 318.09 226.673C319.723 227.465 321.259 228.463 322.06 229.644C324.107 232.665 326.935 230.919 327.337 230.648C327.786 231.388 328.081 232.135 328.267 232.845L328.359 236.992C328.336 237.09 328.321 237.145 328.319 237.149L328.363 237.161L328.586 247.197L330.653 247.181L329.914 236.923C330.038 236.369 330.42 234.484 329.914 232.526L329.174 224.466C329.172 224.46 329.216 224.678 329.174 224.466L328.209 221.299C328.35 220.32 328.675 219.218 329.336 218.127C329.738 218.398 332.567 220.144 334.614 217.124C335.414 215.942 336.95 214.944 338.583 214.152C339.711 213.606 339.224 211.913 337.976 212.046H337.976H337.976ZM328.531 235.79L328.492 234.035C328.571 234.699 328.567 235.298 328.531 235.79Z" fill="#F2F2F2"/>
<path d="M0.5 247.008C0.5 247.491 0.891964 247.88 1.38006 247.88H387.62C388.108 247.88 388.5 247.491 388.5 247.008C388.5 246.524 388.108 246.136 387.62 246.136H1.38006C0.891964 246.136 0.5 246.524 0.5 247.008Z" fill="#3F3D56"/>
<path d="M256.781 130.067L262.019 112.611L277.256 112.139L283.446 133.841L256.781 130.067Z" fill="#A0616A"/>
<path opacity="0.1" d="M256.781 130.067L262.019 112.611L277.256 112.139L283.446 133.841L256.781 130.067Z" fill="black"/>
<path d="M280.169 127.637L255.409 126.693L247.732 142.333L235.887 211.615L298.025 225.533C298.025 225.533 301.834 148.16 293.264 137.308C284.693 126.457 280.169 127.637 280.169 127.637H280.169V127.637Z" fill="#E6E6E6"/>
<path d="M207.656 73.3817C206.624 67.9203 202.943 64.021 199.436 64.6724C195.928 65.3238 193.922 70.2786 194.955 75.7418C195.338 77.9298 196.243 79.9952 197.597 81.7651L202.265 104.851L211.474 102.998L207.394 79.946C208.009 77.81 208.099 75.5591 207.656 73.3817Z" fill="#A0616A"/>
<path d="M276.463 133.924L225.897 124.05L211.686 81.7012L195.762 85.4334L211.737 147.994L268.975 155.456L276.463 133.924Z" fill="#E6E6E6"/>
<path d="M199.449 5.54431C199.4 5.59207 199.354 5.64231 199.305 5.69046C191.648 -1.83848 179.315 -1.90472 171.576 5.54146C163.809 13.017 163.547 25.289 170.987 33.0838L170.982 33.0885L171.167 33.2775L198.566 61.2294L226.968 33.8982L226.889 33.8176C226.937 33.7726 226.986 33.7308 227.034 33.6852C234.877 26.1379 235.059 13.7201 227.442 5.94915C219.825 -1.82173 207.292 -2.00298 199.449 5.54431H199.449Z" fill="#FF7E00"/>
<path d="M206.226 144.175C206.135 144.263 206.05 144.356 205.96 144.445C191.857 130.578 169.144 130.456 154.89 144.17C140.585 157.938 140.101 180.54 153.805 194.897L153.796 194.905L154.137 195.254L204.6 246.734L256.909 196.397L256.763 196.248C256.851 196.165 256.942 196.088 257.03 196.004C271.474 182.104 271.811 159.233 257.782 144.921C243.753 130.609 220.671 130.275 206.226 144.175L206.226 144.175Z" fill="#FF7E00"/>
<path d="M295.171 217.041C295.171 217.041 304.694 239.215 294.219 244.404C283.744 249.594 255.05 253.84 247.97 244.404C240.889 234.969 238.509 191.564 238.509 191.564L215.653 223.174L202.797 215.154C202.797 215.154 218.034 161.842 230.89 159.011C243.746 156.18 278.03 190.149 278.03 190.149L295.171 217.041L295.171 217.041Z" fill="#2F2E41"/>
<path d="M208.507 212.323L198.508 222.23L184.699 229.307L186.128 241.574L212.316 238.743L215.649 232.138L214.697 226.476L216.602 217.512L208.507 212.323Z" fill="#A0616A"/>
<path d="M188.032 236.856L187.214 226.447L158.987 239.686C158.987 239.686 156.801 245.82 163.608 246.763C170.414 247.707 215.649 247.707 215.649 245.348C215.649 242.989 216.887 230.912 216.887 230.912L189.461 238.743L188.032 236.856H188.032H188.032Z" fill="#2F2E41"/>
<path d="M208.842 201.43C203.261 201.979 199.023 205.276 199.376 208.795C199.729 212.314 204.538 214.721 210.12 214.171C212.353 213.982 214.508 213.266 216.404 212.083L240.019 209.464L238.95 200.214L215.419 202.255C213.325 201.463 211.069 201.181 208.842 201.43Z" fill="#A0616A"/>
<path d="M275.646 138.724L261.361 187.79L217.555 198.169L219.935 214.21L284.217 203.831L296.652 147.971L275.646 138.724Z" fill="#E6E6E6"/>
<path d="M267.7 117.836C278.876 117.836 287.935 108.859 287.935 97.7863C287.935 86.7132 278.876 77.7367 267.7 77.7367C256.524 77.7367 247.465 86.7132 247.465 97.7863C247.465 108.859 256.524 117.836 267.7 117.836Z" fill="#A0616A"/>
<path d="M269.315 70.831C268.73 71.1697 267.945 70.6573 267.758 70.0118C267.57 69.3663 267.789 68.681 268.005 68.0445C268.369 66.9765 268.733 65.9084 269.097 64.8404C269.872 62.568 270.693 60.2162 272.37 58.4866C274.902 55.876 278.924 55.2119 282.545 55.693C287.196 56.3109 291.784 58.8059 293.946 62.9316C296.108 67.0574 295.188 72.8143 291.281 75.3884C296.849 81.7121 298.79 88.7597 298.484 97.1464C298.177 105.533 288.953 113.252 282.938 119.16C281.594 118.353 280.373 114.572 281.112 113.198C281.85 111.825 280.792 110.233 281.707 108.968C282.622 107.703 283.387 109.717 282.462 108.459C281.879 107.665 284.157 105.839 283.289 105.364C279.093 103.066 277.697 97.8833 275.062 93.9148C271.883 89.1281 266.442 85.8864 260.685 85.3486C257.513 85.0524 254.163 85.589 251.563 87.4134C248.964 89.2378 247.281 92.498 247.884 95.5975C246.322 94.0268 245.545 91.7249 245.838 89.5395C246.131 87.3542 247.488 85.3334 249.41 84.2212C248.241 80.3938 249.242 75.9911 251.953 73.0292C254.665 70.0674 265.663 70.5719 269.621 71.3514L269.315 70.831H269.315Z" fill="#2F2E41"/>
<path d="M269.93 85.4648C275.172 86.0256 278.958 90.5251 282.154 94.6805C283.996 97.0755 285.926 99.7204 285.88 102.731C285.833 105.776 283.779 108.387 282.797 111.272C281.192 115.987 282.756 121.598 286.576 124.829C282.802 125.539 278.721 122.735 278.07 118.983C277.311 114.616 280.652 110.401 280.257 105.987C279.908 102.098 276.815 99.1055 274.186 96.1979C271.556 93.2903 269.087 89.432 270.297 85.7165L269.93 85.4648H269.93Z" fill="#2F2E41"/>
</g>
<defs>
<clipPath id="clip0_812_26930">
<rect width="388" height="250" fill="white" transform="translate(0.5)"/>
</clipPath>
</defs>
</svg>
