<svg width="388" height="320" viewBox="0 0 388 320" fill="none" xmlns="http://www.w3.org/2000/svg">
<g clip-path="url(#clip0_812_29754)">
<path d="M282.806 285.707C280.367 286.678 277.748 286.921 275.202 286.413C272.655 285.905 270.267 284.664 268.268 282.808C263.175 277.968 261.579 269.998 260.28 262.616L256.438 240.781L264.482 247.053C270.267 251.563 276.183 256.217 280.188 262.75C284.193 269.282 285.941 278.2 282.724 285.268" fill="#FF7E00"/>
<path d="M281.564 313.662C282.576 305.311 283.618 296.851 282.906 288.41C282.275 280.913 280.255 273.592 276.142 267.586C273.959 264.406 271.303 261.68 268.292 259.533C267.508 258.972 266.785 260.38 267.567 260.939C272.775 264.665 276.804 270.169 279.072 276.655C281.577 283.868 281.979 291.731 281.548 299.394C281.287 304.027 280.733 308.631 280.176 313.229C280.132 313.437 280.16 313.656 280.253 313.842C280.346 314.027 280.499 314.166 280.679 314.23C280.863 314.286 281.059 314.258 281.224 314.151C281.39 314.045 281.512 313.869 281.563 313.661L281.564 313.662Z" fill="#F2F2F2"/>
<path d="M274.278 300.261C273.232 302.062 271.794 303.527 270.102 304.516C268.411 305.505 266.523 305.983 264.621 305.906C259.731 305.643 255.656 301.781 251.988 298.113L241.137 287.265L248.318 286.876C253.483 286.596 258.781 286.334 263.7 288.139C268.619 289.944 273.155 294.282 274.055 300.047" fill="#E6E6E6"/>
<path d="M284.426 318.463C279.552 308.698 273.898 297.845 263.795 294.376C260.986 293.415 258.041 293.071 255.118 293.362C254.197 293.452 254.427 295.06 255.346 294.97C260.246 294.51 265.137 295.974 269.194 299.118C273.099 302.127 276.139 306.311 278.712 310.747C280.289 313.465 281.7 316.298 283.112 319.127C283.563 320.031 284.883 319.378 284.426 318.463Z" fill="#F2F2F2"/>
<path d="M174.929 204.942C189.545 204.942 201.393 191.528 201.393 174.98C201.393 158.432 189.545 145.017 174.929 145.017C160.313 145.017 148.465 158.432 148.465 174.98C148.465 191.528 160.313 204.942 174.929 204.942Z" fill="white"/>
<path d="M174.93 205.444C169.609 205.444 164.406 203.657 159.982 200.309C155.557 196.962 152.108 192.204 150.072 186.638C148.035 181.071 147.502 174.946 148.54 169.036C149.579 163.127 152.141 157.699 155.904 153.438C159.667 149.178 164.462 146.276 169.681 145.101C174.901 143.926 180.311 144.529 185.227 146.835C190.144 149.14 194.346 153.045 197.303 158.055C200.259 163.064 201.837 168.954 201.837 174.98C201.829 183.056 198.992 190.8 193.947 196.511C188.903 202.222 182.064 205.434 174.93 205.444ZM174.93 145.518C169.784 145.518 164.753 147.246 160.474 150.483C156.195 153.721 152.859 158.322 150.89 163.705C148.92 169.089 148.405 175.012 149.409 180.727C150.413 186.442 152.891 191.692 156.531 195.812C160.17 199.932 164.806 202.738 169.854 203.875C174.901 205.011 180.133 204.428 184.888 202.198C189.643 199.968 193.707 196.192 196.566 191.347C199.425 186.502 200.952 180.806 200.952 174.98C200.944 167.169 198.2 159.68 193.322 154.157C188.443 148.634 181.829 145.527 174.93 145.518Z" fill="#3F3D56"/>
<path d="M170.466 197.738L170.289 197.652C170.188 197.603 167.816 196.389 168.668 191.373L168.683 191.318L168.999 190.52C169.927 188.169 170.38 185.614 170.327 183.039C168.421 182.989 158.649 182.676 157.506 181.473C157.122 181.072 156.891 180.518 156.859 179.928L156.801 178.873C156.783 178.55 156.824 178.226 156.921 177.922C157.018 177.617 157.169 177.338 157.365 177.102C157.56 176.866 157.797 176.678 158.059 176.55C158.322 176.421 158.605 176.355 158.891 176.355H159.453L159.055 175.839C158.736 175.427 158.56 174.897 158.56 174.349V173.476C158.56 173.073 158.656 172.677 158.837 172.329C159.017 171.981 159.277 171.694 159.588 171.498L159.908 171.297L159.724 171.089C159.466 170.797 159.284 170.43 159.197 170.029C159.11 169.628 159.121 169.208 159.23 168.814C159.338 168.419 159.54 168.066 159.814 167.793C160.087 167.519 160.421 167.336 160.78 167.262L162.872 166.831C162.916 165.981 163.223 165.175 163.739 164.556C164.256 163.938 164.949 163.545 165.696 163.447L171.676 162.667C174.769 162.042 177.921 161.884 181.051 162.197L181.967 162.289L191.219 161.039V175.043L182.663 176.372L175.458 185.828C174.243 189.817 172.655 193.649 170.723 197.257L170.466 197.738Z" fill="#FFB7B7"/>
<path opacity="0.2" d="M169.682 196.622L169.277 196.417L170.668 192.897L172.297 193.466L172.167 193.944L170.912 193.507L169.682 196.622Z" fill="black"/>
<path d="M153.217 164.001L150.384 119.506L150.923 104.656L139.883 107.437L143.949 165.739C143.489 166.814 143.298 168.011 143.398 169.201C143.498 170.39 143.885 171.525 144.517 172.482C145.148 173.439 146 174.181 146.979 174.627C147.958 175.073 149.026 175.206 150.067 175.01C151.108 174.815 152.081 174.3 152.881 173.52C153.681 172.741 154.276 171.727 154.601 170.591C154.926 169.454 154.969 168.238 154.725 167.076C154.481 165.914 153.959 164.85 153.217 164.001V164.001Z" fill="#FFB7B7"/>
<path d="M98.9244 123.073L98.2225 108.165L91.137 101.647L87.0322 115.452L64.0742 150.12C62.9888 150.316 61.9759 150.861 61.1554 151.689C60.3348 152.518 59.741 153.595 59.4442 154.793C59.1474 155.991 59.1599 157.261 59.4804 158.451C59.8009 159.642 60.4159 160.704 61.2526 161.511C62.0893 162.318 63.1127 162.837 64.2017 163.006C65.2908 163.176 66.3998 162.988 67.3977 162.466C68.3956 161.944 69.2406 161.109 69.8326 160.061C70.4247 159.012 70.739 157.793 70.7384 156.549C70.7384 156.461 70.7299 156.376 70.7269 156.289L98.9244 123.073Z" fill="#FFB7B7"/>
<path d="M100.196 118.301L82.9023 97.4031L95.7435 66.9837C96.0032 66.3604 96.3712 65.8028 96.8255 65.3442C97.2798 64.8856 97.8112 64.5354 98.3878 64.3147C98.9548 64.0946 99.5551 64.0062 100.153 64.0549C100.751 64.1035 101.334 64.2881 101.867 64.5977L101.993 64.6702L100.196 118.301Z" fill="#FF7E00"/>
<path d="M138.787 115.008L135.715 94.6176L135.727 94.5662L142.989 62.2421L143.67 62.1525C145.632 61.9075 147.604 62.5001 149.201 63.8144C150.798 65.1287 151.904 67.0701 152.303 69.259L159.147 107.836L138.787 115.008Z" fill="#FF7E00"/>
<path d="M142.701 53.5144H105.945V34.7125C105.945 29.194 107.882 23.9015 111.328 19.9994C114.775 16.0972 119.449 13.905 124.323 13.905C129.197 13.905 133.872 16.0972 137.318 19.9994C140.765 23.9015 142.701 29.194 142.701 34.7125V53.5144Z" fill="#2F2E41"/>
<path d="M189.66 287.713L183.439 293.641L160.285 269.296L169.466 260.548L189.66 287.713Z" fill="#FFB7B7"/>
<path d="M196.32 293.028L176.263 312.142L176.049 311.854C174.307 309.51 173.458 306.478 173.69 303.425C173.922 300.373 175.215 297.549 177.285 295.576L177.286 295.575L189.536 283.902L196.32 293.028Z" fill="#2F2E41"/>
<path d="M96.4163 310.739L88.2862 310.739L84.418 275.232L96.4181 275.233L96.4163 310.739Z" fill="#FFB7B7"/>
<path d="M98.4896 319.662L72.2734 319.661V319.286C72.2736 316.222 73.3488 313.283 75.2624 311.117C77.176 308.95 79.7713 307.733 82.4775 307.733H82.4782L98.4901 307.734L98.4896 319.662Z" fill="#2F2E41"/>
<path d="M60.7578 301.827L64.8049 249.379C66.8577 222.816 71.6882 196.623 79.1952 171.35L96.1425 114.318L97.6226 101.036C93.1131 90.4489 97.8894 82.3856 98.4395 81.5155L97.8513 68.3219C97.8399 68.0624 97.8234 67.8117 97.8079 67.5698C97.6394 64.9777 97.762 63.4838 102.23 62.9241L139.3 61.63C143.99 61.608 146.834 62.4908 147.989 64.3735C149.319 66.5401 148.264 69.6796 147.244 72.7158C147.138 73.0316 147.032 73.3474 146.928 73.6633L132.245 118.301C139.351 133.853 137.981 157.638 137.966 157.877L138.487 164.912L192.387 264.641L160.518 298.333L160.376 298.071L109.039 203.555L108.598 298.818L108.39 298.831L60.7578 301.827Z" fill="#2F2E41"/>
<path d="M137.078 45.2295C141.058 36.9876 138.382 26.6539 131.103 22.1486C123.823 17.6432 114.696 20.6721 110.717 28.914C106.738 37.1558 109.413 47.4895 116.692 51.9949C123.972 56.5003 133.099 53.4713 137.078 45.2295Z" fill="#FFB7B7"/>
<path d="M131.152 22.6427C136.674 22.6427 141.151 17.5739 141.151 11.3213C141.151 5.06874 136.674 0 131.152 0C125.629 0 121.152 5.06874 121.152 11.3213C121.152 17.5739 125.629 22.6427 131.152 22.6427Z" fill="#2F2E41"/>
<path d="M144.475 37.9715H107.719V37.7208C107.719 32.2023 109.655 26.9099 113.102 23.0077C116.548 19.1056 121.223 16.9134 126.097 16.9134C130.971 16.9134 135.645 19.1056 139.092 23.0077C142.538 26.9099 144.475 32.2023 144.475 37.7208V37.9715Z" fill="#2F2E41"/>
<path d="M49.1633 162.826C63.779 162.826 75.6274 149.411 75.6274 132.863C75.6274 116.315 63.779 102.901 49.1633 102.901C34.5476 102.901 22.6992 116.315 22.6992 132.863C22.6992 149.411 34.5476 162.826 49.1633 162.826Z" fill="white"/>
<path d="M49.1647 163.327C43.843 163.327 38.6408 161.541 34.216 158.193C29.7912 154.846 26.3425 150.088 24.306 144.521C22.2695 138.955 21.7366 132.829 22.7748 126.92C23.8131 121.011 26.3757 115.582 30.1387 111.322C33.9017 107.062 38.6961 104.16 43.9155 102.985C49.1349 101.809 54.545 102.412 59.4616 104.718C64.3782 107.024 68.5804 110.929 71.537 115.938C74.4936 120.948 76.0716 126.838 76.0716 132.863C76.0635 140.94 73.2261 148.683 68.1818 154.394C63.1375 160.106 56.2984 163.318 49.1647 163.327ZM49.1647 103.402C44.0182 103.402 38.9872 105.13 34.7081 108.367C30.4289 111.604 27.0937 116.206 25.1242 121.589C23.1548 126.972 22.6395 132.896 23.6435 138.611C24.6475 144.326 27.1258 149.575 30.765 153.696C34.4041 157.816 39.0406 160.622 44.0883 161.758C49.1359 162.895 54.3679 162.312 59.1226 160.082C63.8774 157.852 67.9413 154.076 70.8006 149.231C73.6598 144.386 75.1859 138.69 75.1859 132.863C75.1781 125.052 72.4341 117.564 67.5559 112.041C62.6776 106.518 56.0635 103.411 49.1647 103.402Z" fill="#3F3D56"/>
<path d="M32.8789 146.803V132.8L41.4347 131.471L48.6401 122.015C49.8553 118.025 51.4425 114.194 53.3749 110.586L53.6323 110.105L53.809 110.191C53.9104 110.24 56.2819 111.453 55.4299 116.47L55.4145 116.525L55.0987 117.323C54.171 119.674 53.7174 122.229 53.7709 124.803C55.6771 124.853 65.4485 125.167 66.5922 126.37C66.9754 126.771 67.207 127.325 67.2386 127.915L67.2969 128.97C67.3147 129.293 67.2739 129.617 67.177 129.921C67.0801 130.226 66.929 130.505 66.7332 130.741C66.5374 130.977 66.301 131.165 66.0386 131.293C65.7761 131.422 65.4932 131.488 65.2073 131.488H64.6447L65.043 132.004C65.3618 132.416 65.5376 132.946 65.5375 133.494V134.367C65.5374 134.77 65.4421 135.166 65.2613 135.514C65.0805 135.862 64.821 136.149 64.5095 136.345L64.1896 136.546L64.3735 136.754C64.6315 137.046 64.8139 137.413 64.9011 137.814C64.9882 138.215 64.9768 138.635 64.868 139.029C64.7593 139.423 64.5573 139.776 64.284 140.05C64.0107 140.324 63.6766 140.507 63.3177 140.581L61.2257 141.012C61.1822 141.862 60.875 142.667 60.3584 143.286C59.8418 143.905 59.1489 144.298 58.4017 144.395L52.422 145.176C49.3289 145.801 46.1763 145.959 43.0466 145.646L42.1308 145.554L32.8789 146.803Z" fill="#FFB7B7"/>
<path opacity="0.2" d="M53.4261 114.946L51.7969 114.378L51.9271 113.898L53.1816 114.336L54.4127 111.221L54.817 111.426L53.4261 114.946Z" fill="black"/>
<path d="M387.557 320H0.442841C0.325392 320 0.212753 319.947 0.129705 319.853C0.046656 319.759 0 319.632 0 319.499C0 319.366 0.046656 319.238 0.129705 319.144C0.212753 319.05 0.325392 318.997 0.442841 318.997H387.557C387.675 318.997 387.787 319.05 387.87 319.144C387.953 319.238 388 319.366 388 319.499C388 319.632 387.953 319.759 387.87 319.853C387.787 319.947 387.675 320 387.557 320Z" fill="#CBCBCB"/>
</g>
<defs>
<clipPath id="clip0_812_29754">
<rect width="388" height="320" fill="white"/>
</clipPath>
</defs>
</svg>
