<svg width="60" height="60" viewBox="0 0 60 60" fill="none" xmlns="http://www.w3.org/2000/svg">
<circle cx="30" cy="30" r="30" fill="#F9F9F9"/>
<path d="M35.9917 17.0078H24.0083C20.1417 17.0078 17.0078 20.1423 17.0078 24.0084V35.9917C17.0078 39.8584 20.1422 42.9923 24.0089 42.9923H35.9911C39.8578 42.9923 42.9922 39.8578 42.9922 35.9911V24.0084C42.9922 20.1417 39.8578 17.0078 35.9911 17.0078H35.9917Z" stroke="#727474" stroke-width="2" stroke-miterlimit="10"/>
<path d="M30 36.272C33.4641 36.272 36.2722 33.4638 36.2722 29.9998C36.2722 26.5357 33.4641 23.7275 30 23.7275C26.536 23.7275 23.7278 26.5357 23.7278 29.9998C23.7278 33.4638 26.536 36.272 30 36.272Z" stroke="#727474" stroke-width="2" stroke-miterlimit="10"/>
<path d="M37.6161 23.7278C38.3583 23.7278 38.96 23.1261 38.96 22.3839C38.96 21.6417 38.3583 21.04 37.6161 21.04C36.8739 21.04 36.2722 21.6417 36.2722 22.3839C36.2722 23.1261 36.8739 23.7278 37.6161 23.7278Z" fill="#727474"/>
</svg>
