<svg width="20" height="20" viewBox="0 0 20 20" fill="none" xmlns="http://www.w3.org/2000/svg">
<path d="M7.00418 3.80388L12.9956 3.80388C12.9957 3.80388 12.9958 3.80388 12.9958 3.80388C14.7634 3.80403 16.1961 5.23663 16.1961 7.00415V12.9955C16.1961 14.7632 14.7632 16.1961 12.9956 16.1961H7.00446C5.23678 16.1961 3.80391 14.7634 3.80391 12.9958L3.80391 7.00415C3.80391 5.23677 5.23655 3.80388 7.00418 3.80388Z" stroke="#020105" stroke-width="0.6"/>
<path d="M12.9958 3.50388L7.00418 3.50388C5.07085 3.50388 3.50391 5.0711 3.50391 7.00415L3.50391 12.9958C3.50391 14.9292 5.07113 16.4961 7.00446 16.4961H12.9956C14.9289 16.4961 16.4961 14.9289 16.4961 12.9955V7.00415C16.4961 5.07082 14.9289 3.50388 12.9956 3.50388H12.9958Z" stroke="#020105" stroke-width="0.2" stroke-miterlimit="10"/>
<path d="M10 13.1361C11.732 13.1361 13.1361 11.732 13.1361 10C13.1361 8.26798 11.732 6.86389 10 6.86389C8.26798 6.86389 6.86389 8.26798 6.86389 10C6.86389 11.732 8.26798 13.1361 10 13.1361Z" stroke="#020105" stroke-width="0.6" stroke-miterlimit="10"/>
<path d="M13.8081 6.86389C14.1792 6.86389 14.48 6.56305 14.48 6.19195C14.48 5.82084 14.1792 5.52 13.8081 5.52C13.4369 5.52 13.1361 5.82084 13.1361 6.19195C13.1361 6.56305 13.4369 6.86389 13.8081 6.86389Z" fill="#020105"/>
</svg>
