<svg width="12" height="12" viewBox="0 0 12 12" fill="none" xmlns="http://www.w3.org/2000/svg">
<path d="M8.05977 4.37561L8.06043 4.37571L11.085 4.81263L11.085 4.81265L11.0893 4.81323C11.1061 4.81546 11.1216 4.82409 11.1329 4.83884L11.133 4.83892C11.1486 4.85917 11.1463 4.88741 11.1275 4.90498L11.1275 4.90494L11.1226 4.90969L8.93193 7.02804C8.72337 7.22598 8.62969 7.5157 8.68317 7.79818L9.20629 10.7788C9.20934 10.8091 9.18849 10.8369 9.15869 10.8426C9.13913 10.8452 9.11887 10.8422 9.10015 10.8336L6.41435 9.42561C6.1616 9.28963 5.8586 9.28961 5.60583 9.42554L2.89739 10.8426C2.86502 10.8584 2.82422 10.8476 2.80373 10.8157C2.79888 10.8047 2.7972 10.7927 2.799 10.7803L3.32341 7.79232C3.32342 7.79228 3.32342 7.79225 3.32343 7.79221C3.37254 7.51263 3.27997 7.22599 3.07658 7.02807L3.07487 7.02641L0.87449 4.91048C0.853846 4.88876 0.853153 4.85554 0.871734 4.83316C0.887276 4.82143 0.904727 4.81355 0.923167 4.80964L3.93979 4.37396L3.9398 4.374L3.94516 4.37315C4.22279 4.3292 4.46307 4.155 4.59009 3.90206L4.5908 3.90062L5.94064 1.18521L5.94135 1.18375C5.94885 1.16851 5.96169 1.15805 5.97497 1.15367L5.97611 1.15329C5.99235 1.14788 6.01052 1.14919 6.02581 1.15688L6.02581 1.15688L6.02749 1.15772C6.04101 1.16443 6.05287 1.17561 6.06068 1.18974L7.40893 3.90195C7.40904 3.90216 7.40914 3.90237 7.40924 3.90258C7.53482 4.15647 7.77732 4.33433 8.05977 4.37561Z" stroke="#5D5D5F" stroke-width="0.8" stroke-linecap="round" stroke-linejoin="round"/>
</svg>
