<svg width="16" height="14" viewBox="0 0 16 14" fill="none" xmlns="http://www.w3.org/2000/svg">
<path d="M15.0125 0.533325C15.4875 0.533325 15.8458 0.949992 15.6541 1.72499L13.3291 12.6833C13.1666 13.4625 12.6958 13.65 12.0458 13.2875L6.49996 9.19166C6.47845 9.17623 6.46093 9.1559 6.44884 9.13235C6.43675 9.1088 6.43045 9.08271 6.43045 9.05624C6.43045 9.02977 6.43675 9.00368 6.44884 8.98014C6.46093 8.95659 6.47845 8.93626 6.49996 8.92083L12.9041 3.13749C13.1958 2.87916 12.8416 2.75416 12.4583 2.98749L4.42079 8.05833C4.39641 8.07422 4.36874 8.08436 4.33986 8.08797C4.31098 8.09158 4.28166 8.08857 4.25412 8.07916L0.841622 6.99999C0.0832892 6.77916 0.0832891 6.25833 1.01246 5.88749L14.6666 0.620825C14.7749 0.568876 14.8925 0.539125 15.0125 0.533325V0.533325Z" stroke="#020105" stroke-width="0.6" stroke-linecap="round" stroke-linejoin="round"/>
</svg>
