<svg width="34" height="29" viewBox="0 0 34 29" fill="none" xmlns="http://www.w3.org/2000/svg">
<path d="M31.7967 0.899939L1.92001 12.2633C0.29501 12.7449 0.336677 14.3566 1.54501 14.7533L9.01668 17.0999L11.89 25.9333C12.245 26.8949 12.515 27.2716 13.1183 27.2716C13.7433 27.2716 13.9733 27.0416 14.6383 26.4766C15.3883 25.7649 16.555 24.6349 18.3867 22.8349L26.1733 28.6116C27.61 29.4066 28.63 28.9883 29.005 27.2733L33.8767 2.99161C34.3967 0.898273 33.1683 0.271606 31.7933 0.898273L31.7967 0.899939ZM10.205 16.5749L27.2167 5.83827C28.05 5.27327 28.32 5.90161 27.9467 6.34161L13.83 19.1083L13.1017 25.4933L10.2067 16.5766L10.205 16.5749Z" fill="#FF6418"/>
</svg>
